<?xml version="1.0" standalone="no"?>
<!DOCTYPE svg PUBLIC "-//W3C//DTD SVG 20010904//EN"
 "http://www.w3.org/TR/2001/REC-SVG-20010904/DTD/svg10.dtd">
<svg version="1.0" xmlns="http://www.w3.org/2000/svg"
 width="700.000000pt" height="700.000000pt" viewBox="0 0 700.000000 700.000000"
 preserveAspectRatio="xMidYMid meet">
<metadata>
Created by potrace 1.11, written by Peter Selinger 2001-2013
</metadata>
<g transform="translate(0.000000,700.000000) scale(0.100000,-0.100000)"
fill="#000000" stroke="none">
<path d="M0 3500 l0 -3500 3500 0 3500 0 0 3500 0 3500 -3500 0 -3500 0 0
-3500z m2895 1240 c128 -21 256 -55 378 -102 l77 -29 0 -223 0 -223 -97 48
c-220 109 -425 155 -656 147 -175 -6 -268 -33 -381 -109 -117 -78 -192 -186
-236 -341 -28 -94 -38 -302 -21 -418 43 -292 213 -482 480 -536 105 -21 327
-15 409 10 l52 17 0 209 0 210 -165 0 -165 0 0 185 0 185 430 0 430 0 0 -517
0 -518 -93 -39 c-177 -75 -359 -123 -561 -147 -144 -17 -457 -6 -567 19 -264
62 -482 196 -625 385 -114 150 -189 367 -202 580 -28 450 101 780 390 997 186
141 406 214 683 229 136 7 336 -2 440 -19z m2145 -5 c108 -16 261 -47 331 -65
l39 -11 0 -224 c0 -124 -4 -225 -9 -225 -5 0 -34 11 -65 25 -88 39 -270 91
-384 110 -144 24 -363 17 -444 -14 -31 -12 -69 -31 -83 -43 -59 -46 -82 -154
-49 -225 36 -76 106 -104 411 -168 250 -52 344 -80 459 -136 147 -72 244 -185
285 -334 21 -75 19 -332 -4 -414 -58 -212 -206 -360 -427 -425 -106 -32 -232
-46 -405 -46 -252 0 -484 37 -711 113 l-99 34 -3 231 c-1 128 -1 232 1 232 2
0 51 -22 108 -49 120 -56 281 -113 389 -136 119 -26 331 -31 422 -11 129 29
201 92 214 187 9 68 -11 128 -61 175 -53 52 -126 77 -395 138 -303 68 -439
127 -549 236 -103 102 -151 234 -151 412 0 340 174 553 519 635 138 33 439 32
661 -2z"/>
</g>
</svg>
