<svg width="62" height="63" viewBox="0 0 62 63" xmlns="http://www.w3.org/2000/svg"><title>Group 5</title><g transform="translate(1 1)" fill="none" fill-rule="evenodd"><ellipse stroke="#FFF" cx="30" cy="30.428" rx="30" ry="30.428"/><g fill="#EDEDED"><path d="M39.778 42.85h-3.99a.264.264 0 0 1-.26-.265v-.987a.265.265 0 0 0-.263-.266h-5.583a.265.265 0 0 0-.26.266v.987a.264.264 0 0 1-.263.266h-3a.265.265 0 0 0-.262.267v1.142c0 .145.117.265.26.265h13.62c.144 0 .26-.12.26-.266v-1.143a.264.264 0 0 0-.26-.266zM46.48 16.153H18.01c-.99 0-1.795.82-1.795 1.826v4.762c0 .63-.046.72.37.72h.712c.35 0 .278-.09.278-.732v-4.75c0-.242.2-.445.436-.445h28.47c.238 0 .438.203.438.444v17.827H26.62s-.715 0-.715.94v2.23c0 .938.74.938.74.938H46.48c.99 0 1.798-.82 1.798-1.826V17.98c0-1.008-.806-1.827-1.797-1.827zM32.247 38.338a.816.816 0 0 1-.81-.823c0-.454.363-.823.81-.823.447 0 .81.37.81.823a.816.816 0 0 1-.81.823z"/><path d="M23.134 25.092h-10.3c-.638 0-1.158.528-1.158 1.178v17.206c0 .65.52 1.18 1.16 1.18h10.298c.64 0 1.16-.53 1.16-1.18V26.27c0-.65-.52-1.178-1.16-1.178zm-6.42 1.202h2.54c.122 0 .22.1.22.223a.222.222 0 0 1-.22.223h-2.54a.22.22 0 0 1-.22-.223.22.22 0 0 1 .22-.223zm1.255 17.533c-.332 0-.6-.273-.6-.61 0-.337.268-.61.6-.61.33 0 .6.273.6.61 0 .337-.27.61-.6.61zm5.327-1.792a.282.282 0 0 1-.275.286H12.947a.28.28 0 0 1-.275-.285V27.737a.28.28 0 0 1 .275-.286h10.075c.152 0 .275.13.275.287v14.298z"/></g></g></svg>