<svg width="62" height="63" viewBox="0 0 62 63" xmlns="http://www.w3.org/2000/svg"><title>Group 4</title><g transform="translate(1 1)" fill="none" fill-rule="evenodd"><ellipse stroke="#FFF" cx="30" cy="30.428" rx="30" ry="30.428"/><g fill="#EDEDED"><path d="M15.356 19.74a.51.51 0 0 0 .364-.153.534.534 0 0 0 0-.743.51.51 0 0 0-.364-.154.51.51 0 0 0-.363.154.534.534 0 0 0 0 .743.51.51 0 0 0 .363.154zM17 19.74a.51.51 0 0 0 .365-.153.534.534 0 0 0 0-.743.51.51 0 0 0-.364-.154.51.51 0 0 0-.362.154.534.534 0 0 0 0 .743.51.51 0 0 0 .363.154zM18.646 19.74a.51.51 0 0 0 .364-.153.534.534 0 0 0 0-.743.51.51 0 0 0-.364-.154.51.51 0 0 0-.363.154.534.534 0 0 0 0 .743.51.51 0 0 0 .363.154zM20.84 19.74h20.838a.52.52 0 0 0 .514-.525.52.52 0 0 0-.514-.525H20.84a.52.52 0 0 0-.514.525c0 .29.23.526.514.526zM43.87 19.74h1.098a.52.52 0 0 0 .514-.525.52.52 0 0 0-.514-.525H43.87a.52.52 0 0 0-.513.525c0 .29.23.526.514.526zM15.905 24.787h3.838a.52.52 0 0 0 .514-.526.52.52 0 0 0-.514-.525h-3.838a.52.52 0 0 0-.515.526c0 .29.23.527.515.527zM19.743 26.538h-3.838a.52.52 0 0 0-.515.526c0 .29.23.526.515.526h3.838a.52.52 0 0 0 .514-.526.52.52 0 0 0-.514-.526zM19.743 29.342h-3.838a.52.52 0 0 0-.515.525c0 .29.23.526.515.526h3.838a.52.52 0 0 0 .514-.526.52.52 0 0 0-.514-.525zM19.743 32.145h-3.838a.52.52 0 0 0-.515.525c0 .29.23.526.515.526h3.838a.52.52 0 0 0 .514-.526.52.52 0 0 0-.514-.525zM28.517 24.787h3.84a.52.52 0 0 0 .513-.526.52.52 0 0 0-.514-.525h-3.84a.52.52 0 0 0-.513.526c0 .29.23.527.514.527zM28.517 27.59h8.226a.52.52 0 0 0 .514-.526.52.52 0 0 0-.514-.526h-8.226a.52.52 0 0 0-.514.526c0 .29.23.526.514.526zM28.517 30.393h6.032a.52.52 0 0 0 .513-.526.52.52 0 0 0-.514-.525h-6.033a.52.52 0 0 0-.514.525c0 .29.23.526.514.526zM41.678 32.145h-13.16a.52.52 0 0 0-.515.525c0 .29.23.526.514.526h13.16a.52.52 0 0 0 .515-.526.52.52 0 0 0-.514-.525zM26.324 37.75h-1.097a.52.52 0 0 0-.514.526c0 .29.23.526.514.526h1.097a.52.52 0 0 0 .514-.526.52.52 0 0 0-.514-.525zM26.324 40.554h-1.097a.52.52 0 0 0-.514.525c0 .29.23.525.514.525h1.097a.52.52 0 0 0 .514-.526.52.52 0 0 0-.514-.526zM28.517 38.802h1.097a.52.52 0 0 0 .514-.526.52.52 0 0 0-.514-.525h-1.097a.52.52 0 0 0-.514.526c0 .29.23.526.514.526zM30.71 40.554h-2.193a.52.52 0 0 0-.514.525c0 .29.23.525.514.525h2.194a.52.52 0 0 0 .515-.526.52.52 0 0 0-.514-.526zM40.033 37.75h-8.226a.52.52 0 0 0-.514.526c0 .29.23.526.514.526h8.226a.52.52 0 0 0 .514-.526.52.52 0 0 0-.514-.525zM36.194 40.554h-3.29a.52.52 0 0 0-.514.525c0 .29.23.525.514.525h3.29a.52.52 0 0 0 .514-.526.52.52 0 0 0-.514-.526zM26.324 23.735h-1.097a.52.52 0 0 0-.514.526c0 .29.23.527.514.527h1.097a.52.52 0 0 0 .514-.526.52.52 0 0 0-.514-.525zM26.324 26.538h-1.097a.52.52 0 0 0-.514.526c0 .29.23.526.514.526h1.097a.52.52 0 0 0 .514-.526.52.52 0 0 0-.514-.526zM26.324 29.342h-1.097a.52.52 0 0 0-.514.525c0 .29.23.526.514.526h1.097a.52.52 0 0 0 .514-.526.52.52 0 0 0-.514-.525zM26.324 32.145h-1.097a.52.52 0 0 0-.514.525c0 .29.23.526.514.526h1.097a.52.52 0 0 0 .514-.526.52.52 0 0 0-.514-.525zM19.743 34.948h-3.838a.52.52 0 0 0-.515.525c0 .29.23.526.515.526h3.838a.52.52 0 0 0 .514-.527.52.52 0 0 0-.514-.525zM19.743 37.75h-3.838a.52.52 0 0 0-.515.526c0 .29.23.526.515.526h3.838a.52.52 0 0 0 .514-.526.52.52 0 0 0-.514-.525zM19.743 40.554h-3.838a.52.52 0 0 0-.515.525c0 .29.23.525.515.525h3.838a.52.52 0 0 0 .514-.526.52.52 0 0 0-.514-.526z"/><path d="M44.968 16.447H15.356c-1.493 0-2.707 1.242-2.707 2.768V41.64c0 1.526 1.213 2.768 2.706 2.768h29.612c1.493 0 2.708-1.242 2.708-2.768V19.215c0-1.526-1.215-2.768-2.708-2.768zm-21.97 5.536h23.65v12.965h-23.65V21.983zM15.357 17.5h29.612c.926 0 1.68.77 1.68 1.715v1.717h-32.97v-1.717c0-.946.752-1.716 1.678-1.716zm-1.68 24.14V21.983h8.295v21.374h-6.614c-.926 0-1.68-.77-1.68-1.717zm31.292 1.717h-21.97V36h23.65v5.64c0 .947-.754 1.717-1.68 1.717z"/></g></g></svg>