<svg width="62" height="63" viewBox="0 0 62 63" xmlns="http://www.w3.org/2000/svg"><title>website-design-symbol</title><g transform="translate(1 1)" fill="none" fill-rule="evenodd"><path d="M34.354 45.306c-.562-.42-.622-1.05-.622-1.05l-.21-1.366H26.8l-.21 1.366s-.06.63-.62 1.05c-.563.42-1.006.778-.563.84.426.058 4.455.005 4.752 0 .298.005 4.326.058 4.753 0 .443-.06 0-.42-.56-.84zm-11.76-10.918c1.795-.015 2.02-.453 2.604-2.28 1.08-2.885 5.938.754 2.926 2.017-3.01 1.264-7.324.277-5.53.263zM40.998 15.38c-.872-.712-2.314-.36-3.223.783l-9.208 13.27c-.91 1.142-.904.924-.034 1.635.87.712.66.763 1.57-.38L40.928 18.74c.91-1.144.94-2.648.07-3.36zm4.083 4.484h-4.048l-1.788 1.974h5.19v15.79H15.89v-15.79h16.602l1.37-1.974h-18.62c-.717 0-1.298.59-1.298 1.316v19.08c0 .725.58 1.314 1.297 1.314H45.08c.718 0 1.298-.59 1.298-1.315V21.18c0-.727-.58-1.316-1.297-1.316z" fill="#FFF"/><ellipse stroke="#FFF" cx="30" cy="30.428" rx="30" ry="30.428"/></g></svg>