<?xml version="1.0" encoding="UTF-8" standalone="no"?>
<svg width="213px" height="205px" viewBox="0 0 213 205" version="1.1" xmlns="http://www.w3.org/2000/svg" xmlns:xlink="http://www.w3.org/1999/xlink">
    <!-- Generator: Sketch 3.6.1 (26313) - http://www.bohemiancoding.com/sketch -->
    <title>Group</title>
    <desc>Created with Sketch.</desc>
    <defs></defs>
    <g id="Page-1" stroke="none" stroke-width="1" fill="none" fill-rule="evenodd">
        <g id="Desktop-HD" transform="translate(-842.000000, -278.000000)">
            <g id="Group-5" transform="translate(-1.000000, 0.000000)">
                <g id="icon" transform="translate(844.000000, 279.000000)">
                    <g id="Capa_1">
                        <g id="Group">
                            <path d="M31.7569624,159.535003 C12.1640648,142.668299 0,119.119064 0,93.0640102 C0,41.7686623 47.1466391,0.193815588 105.307312,0.193815588 C163.467984,0.193815588 210.622843,41.7686623 210.622843,93.0640102 C210.622843,144.359358 163.467984,185.942415 105.307312,185.942415 C97.7026345,185.942415 90.2862567,185.231497 83.1389491,183.880906 C71.6250053,189.429021 24.9765292,210.577635 1.66854389,200.95008 C-0.222438123,194.153425 27.4420067,184.197884 31.7569624,159.535003 Z" id="Combined-Shape" stroke="#F970B9"></path>
                            <path d="M69.2710003,64.3321996 C68.413396,64.3321996 67.9846002,65.0691922 67.9846002,66.5431996 L67.9846002,77.8795998 C67.9846002,78.9248051 68.0247998,79.5813985 68.1052002,79.8493999 C68.3196013,80.5462034 68.7751968,80.9481994 69.4720003,81.0553999 C69.6328011,81.0822 69.8337991,81.1022998 70.0750003,81.1156999 C70.3162015,81.1291 70.5841988,81.1357999 70.8790003,81.1357999 L72.8488003,81.1357999 C75.0196112,81.1357999 76.1050004,80.4658066 76.1050004,79.1257999 C76.1050004,78.7237979 76.0514009,78.2950021 75.9442004,77.8393998 C75.8101997,77.1693965 75.7432004,76.6468017 75.7432004,76.2715998 C75.7432004,75.4139955 76.0647972,74.6971027 76.7080004,74.1208998 C77.3512036,73.5446969 78.1551956,73.2565998 79.1200005,73.2565998 C81.2640112,73.2565998 82.3360005,74.3151892 82.3360005,76.4323998 C82.3360005,76.673601 82.3226007,76.9683981 82.2958005,77.3167998 C82.2690004,77.6652016 82.2288008,78.0671976 82.1752005,78.5227999 C82.1216002,78.9784021 82.0814006,79.3803981 82.0546005,79.7287999 C82.0278004,80.0772016 82.0144005,80.3585988 82.0144005,80.5729999 C82.0144005,80.8410012 82.0211004,81.1089986 82.0345005,81.3769999 C82.0479006,81.6450013 82.0680004,81.9129986 82.0948005,82.1809999 C82.1484008,82.7170026 82.1886004,83.1390984 82.2154005,83.4473 C82.2422007,83.7555015 82.2556005,83.9363997 82.2556005,83.99 C82.2556005,85.4640074 81.3846092,86.201 79.6426005,86.201 C79.1869982,86.201 78.6376037,86.1876001 77.9944004,86.1608 C77.3511972,86.1339999 76.6008047,86.0938003 75.7432004,86.0402 C73.1703875,85.8793992 69.4720244,85.799 64.6480002,85.799 C63.9243966,85.799 63.274503,85.8190998 62.6983001,85.8593 C62.1220973,85.8995002 61.5928025,85.9530997 61.1104001,86.0201 C60.6279977,86.0871003 60.1791022,86.1406998 59.7637001,86.1809 C59.348298,86.2211002 58.9396021,86.2412 58.5376001,86.2412 C57.7067959,86.2412 57.0301027,85.9598028 56.5075,85.397 C55.9848974,84.8341972 55.7236,84.1240043 55.7236,83.2663999 C55.7236,82.489196 55.9312979,81.8527024 56.3467,81.3568999 C56.7621021,80.8610974 57.2913968,80.6131999 57.9346001,80.6131999 C58.1490011,80.6131999 58.463898,80.6600994 58.8793001,80.7538999 C59.2947022,80.8477004 59.609599,80.8945999 59.8240001,80.8945999 C60.5476037,80.8945999 60.9094001,79.983409 60.9094001,78.1609999 L60.9094001,67.0255996 C60.9094001,65.2299906 60.5476037,64.3321996 59.8240001,64.3321996 C59.609599,64.3321996 59.2947022,64.3790991 58.8793001,64.4728996 C58.463898,64.5667001 58.1356013,64.6135996 57.8944001,64.6135996 C57.277997,64.6135996 56.7621021,64.3590021 56.3467,63.8497996 C55.9312979,63.340597 55.7236,62.7108033 55.7236,61.9603995 C55.7236,60.0039897 56.7151901,59.0257995 58.6984001,59.0257995 C59.073602,59.0257995 60.2259905,59.1061987 62.1556001,59.2669995 C62.7988034,59.3205998 63.4084973,59.3607994 63.9847002,59.3875995 C64.5609031,59.4143996 65.1169975,59.4277995 65.6530002,59.4277995 C66.1086025,59.4277995 66.5507981,59.4143996 66.9796002,59.3875995 C67.4084024,59.3607994 67.8371981,59.3205998 68.2660003,59.2669995 C69.5524067,59.1061987 70.4769975,59.0257995 71.0398003,59.0257995 C71.9242047,59.0257995 72.6276977,59.2870969 73.1503003,59.8096995 C73.672903,60.3323021 73.9342004,61.0357951 73.9342004,61.9201995 C73.9342004,62.6974034 73.7332024,63.340597 73.3312003,63.8497996 C72.9291983,64.3590021 72.4200034,64.6135996 71.8036003,64.6135996 C71.5087988,64.6135996 71.0867031,64.5667001 70.5373003,64.4728996 C69.9878975,64.3790991 69.5658018,64.3321996 69.2710003,64.3321996 L69.2710003,64.3321996 Z M103.521401,74.2213998 C103.521401,75.3470054 103.380702,76.0973979 103.099301,76.4725998 C102.8179,76.8478017 102.261805,77.0353998 101.431001,77.0353998 L91.6222007,77.0353998 C91.1397983,77.0353998 90.8383013,77.0822994 90.7177007,77.1760998 C90.5971001,77.2699003 90.5368007,77.504398 90.5368007,77.8795998 C90.5368007,79.0052055 90.8985971,79.9431961 91.6222007,80.6935999 C92.3458043,81.4440037 93.2569952,81.8191999 94.3558007,81.8191999 C95.4814064,81.8191999 96.6337949,81.2028061 97.8130008,79.9699999 C98.6170048,79.1123956 99.501396,78.6835999 100.466201,78.6835999 C101.270205,78.6835999 101.920098,78.9113976 102.415901,79.3669999 C102.911703,79.8226022 103.159601,80.3987964 103.159601,81.0955999 C103.159601,82.6500077 102.308709,83.9698945 100.606901,85.0553 C98.9050923,86.1407054 96.834813,86.6834 94.3960007,86.6834 C91.2067847,86.6834 88.6608102,85.7186096 86.7580006,83.789 C84.8551911,81.8593903 83.9038005,79.286616 83.9038005,76.0705998 C83.9038005,72.8277835 84.8484911,70.2081097 86.7379006,68.2114997 C88.6273101,66.2148896 91.0995854,65.2165996 94.1548007,65.2165996 C96.995615,65.2165996 99.2668923,66.0339914 100.968701,67.6687997 C102.670509,69.3036079 103.521401,71.4877861 103.521401,74.2213998 L103.521401,74.2213998 Z M90.7378007,72.2113997 C90.7378007,72.3722005 90.7780003,72.5061992 90.8584007,72.6133997 C90.9388011,72.7206003 91.2201983,72.7741997 91.7026007,72.7741997 L96.2050008,72.7741997 C96.6070028,72.7741997 96.8549003,72.7273002 96.9487008,72.6334997 C97.0425013,72.5396993 97.0894008,72.3722009 97.0894008,72.1309997 C97.0894008,71.4341962 96.7812039,70.8245023 96.1648008,70.3018997 C95.5483977,69.7792971 94.8248049,69.5179997 93.9940007,69.5179997 C92.9219954,69.5179997 92.0510041,69.9333955 91.3810007,70.7641997 C90.9521985,71.3002024 90.7378007,71.7825976 90.7378007,72.2113997 L90.7378007,72.2113997 Z M114.415601,71.2867997 L114.415601,72.9349998 L114.375401,75.4273998 L114.295001,78.1207999 C114.268201,79.0052043 114.254801,79.3670007 114.254801,79.2061999 C114.254801,80.7874078 114.763996,81.5779999 115.782401,81.5779999 C116.747206,81.5779999 117.229601,80.867807 117.229601,79.4473999 C117.229601,79.2329988 117.216201,79.0722004 117.189401,78.9649999 L117.189401,78.4423999 C117.162601,78.2547989 117.149201,78.1208003 117.149201,78.0403998 C117.149201,76.5931926 117.872794,75.8695998 119.320001,75.8695998 C121.00841,75.8695998 121.852601,77.2229863 121.852601,79.9297999 C121.852601,82.0470105 121.222808,83.701894 119.963201,84.8945 C118.703595,86.087106 116.948212,86.6834 114.697001,86.6834 C110.274979,86.6834 108.064001,84.3518233 108.064001,79.6885999 C108.064001,78.9381961 108.097501,77.8126073 108.164501,76.3117998 C108.231501,74.8109923 108.265001,73.6854035 108.265001,72.9349998 L108.265001,71.6485997 C108.265001,70.9785964 108.204702,70.5565006 108.084101,70.3822997 C107.9635,70.2080988 107.675403,70.1209997 107.219801,70.1209997 L106.576601,70.1209997 C106.067398,70.1209997 105.652003,69.9267016 105.330401,69.5380997 C105.008799,69.1494977 104.848001,68.6470028 104.848001,68.0305997 C104.848001,67.4141966 105.015499,66.8849018 105.350501,66.4426996 C105.685503,66.0004974 106.080799,65.7793996 106.536401,65.7793996 L107.300201,65.7793996 C107.943404,65.7793996 108.3186,65.5918015 108.425801,65.2165996 C108.506201,65.0021985 108.546401,64.6404021 108.546401,64.1311996 L108.546401,62.1613995 C108.546401,61.2233948 108.794299,60.5802013 109.290101,60.2317995 C109.785904,59.8833978 110.690394,59.7091995 112.003601,59.7091995 C112.941606,59.7091995 113.578099,59.8431982 113.913101,60.1111995 C114.248103,60.3792009 114.415601,60.968795 114.415601,61.8799995 L114.415601,64.0507996 C114.415601,64.8280035 114.4893,65.3103987 114.636701,65.4979996 C114.784102,65.6856006 115.165998,65.7793996 115.782401,65.7793996 L118.676801,65.7793996 C120.258009,65.7793996 121.048601,66.5163923 121.048601,67.9903997 C121.048601,69.4108068 120.325008,70.1209997 118.877801,70.1209997 L115.581401,70.1209997 C115.018598,70.1209997 114.683602,70.2147988 114.576401,70.4023997 C114.469201,70.5900006 114.415601,70.8847977 114.415601,71.2867997 L114.415601,71.2867997 Z M124.586201,62.5231996 C124.586201,61.3707938 124.954698,60.4060034 125.691701,59.6287995 C126.428705,58.8515956 127.333196,58.4629995 128.405201,58.4629995 C129.718408,58.4629995 130.817197,59.012394 131.701601,60.1111995 C132.586006,61.210005 133.028201,62.5499916 133.028201,64.1311996 C133.028201,67.3740159 131.594416,70.764182 128.726801,74.3017998 C128.029998,75.1594041 127.386804,75.5881998 126.797201,75.5881998 C125.805596,75.5881998 125.309801,75.0388053 125.309801,73.9399998 C125.309801,73.2699964 125.591199,72.5196039 126.154001,71.6887997 C127.708409,69.4107883 128.485601,67.9234031 128.485601,67.2265996 C128.485601,66.8513978 128.177404,66.5700006 127.561001,66.3823996 C125.577791,65.8195968 124.586201,64.5332096 124.586201,62.5231996 L124.586201,62.5231996 Z M144.605802,65.2165996 C146.669412,65.2165996 148.411395,65.7927939 149.831802,66.9451996 C149.939002,65.819594 150.662595,65.2567996 152.002602,65.2567996 C153.369409,65.2567996 154.052802,65.7391948 154.052802,66.7039996 C154.052802,67.0256012 153.999202,67.3873976 153.892002,67.7893997 C153.811601,68.2718021 153.771402,68.7273975 153.771402,69.1561997 C153.771402,69.2366001 153.784802,69.4509979 153.811602,69.7993997 L153.811602,70.7239997 L153.811602,70.8847997 C153.811602,72.3052068 153.101409,73.0153998 151.681002,73.0153998 C150.662597,73.0153998 149.778206,72.5062048 149.027802,71.4877997 C148.116597,70.2549935 147.004408,69.6385997 145.691202,69.6385997 C144.136794,69.6385997 143.359602,70.1745943 143.359602,71.2465997 C143.359602,71.8094025 143.614199,72.2046986 144.123402,72.4324997 C144.632604,72.6603009 145.972591,72.9617979 148.143402,73.3369998 C149.912211,73.6586014 151.218698,74.0203978 152.062902,74.4223998 C152.907106,74.8244018 153.597199,75.400596 154.133202,76.1509998 C154.803205,77.1158047 155.138202,78.2413934 155.138202,79.5277999 C155.138202,81.5646101 154.35431,83.2663931 152.786502,84.6332 C151.218694,86.0000068 149.255614,86.6834 146.897202,86.6834 C144.53879,86.6834 142.394811,85.9330075 140.465202,84.4322 C140.465202,85.7454066 139.795208,86.402 138.455202,86.402 C137.007994,86.402 136.284402,85.8124059 136.284402,84.6332 C136.284402,84.3651986 136.311201,83.9498028 136.364802,83.387 C136.418402,82.8241971 136.445202,82.4088013 136.445202,82.1407999 C136.445202,81.8995987 136.425102,81.5378023 136.384902,81.0553999 C136.344701,80.5729975 136.324602,80.2112011 136.324602,79.9699999 C136.324602,78.7639938 137.074994,78.1609999 138.575802,78.1609999 C139.299405,78.1609999 139.8488,78.2681988 140.224002,78.4825999 C140.599204,78.6970009 141.001199,79.1123968 141.430002,79.7287999 C142.100005,80.7204049 142.716399,81.3702984 143.279202,81.6784999 C143.842005,81.9867015 144.672796,82.1407999 145.771602,82.1407999 C147.701211,82.1407999 148.666002,81.5378059 148.666002,80.3317999 C148.666002,79.5009957 147.88881,78.9248015 146.334402,78.6031999 L144.002802,78.1207999 C142.099992,77.7187978 140.753306,77.3168018 139.962702,76.9147998 C139.172098,76.5127978 138.549004,75.8763042 138.093402,75.0052998 C137.637799,74.1342954 137.410002,73.1360054 137.410002,72.0103997 C137.410002,70.0003896 138.073295,68.365606 139.399902,67.1059996 C140.726508,65.8463933 142.461791,65.2165996 144.605802,65.2165996 L144.605802,65.2165996 Z M64.6480002,104.4868 L64.6480002,106.135 L64.6078002,108.6274 L64.5274002,111.3208 C64.5006,112.205204 64.4872002,112.567 64.4872002,112.4062 C64.4872002,113.987408 64.9963951,114.778 66.0148002,114.778 C66.9796051,114.778 67.4620002,114.067807 67.4620002,112.6474 C67.4620002,112.432999 67.4486004,112.2722 67.4218002,112.165 L67.4218002,111.6424 C67.3950001,111.454799 67.3816002,111.3208 67.3816002,111.2404 C67.3816002,109.793192 68.105193,109.0696 69.5524003,109.0696 C71.2408088,109.0696 72.0850003,110.422986 72.0850003,113.1298 C72.0850003,115.24701 71.4552066,116.901894 70.1956003,118.0945 C68.935994,119.287106 67.1806115,119.8834 64.9294002,119.8834 C60.507378,119.8834 58.2964001,117.551823 58.2964001,112.8886 C58.2964001,112.138196 58.3298997,111.012607 58.3969001,109.5118 C58.4639004,108.010992 58.4974001,106.885403 58.4974001,106.135 L58.4974001,104.8486 C58.4974001,104.178596 58.4371007,103.7565 58.3165001,103.5823 C58.1958995,103.408099 57.9078023,103.321 57.4522,103.321 L56.809,103.321 C56.2997975,103.321 55.8844016,103.126701 55.5628,102.738099 C55.2411984,102.349498 55.0804,101.847003 55.0804,101.230599 C55.0804,100.614196 55.2478983,100.084902 55.5829,99.6426994 C55.9179017,99.2004972 56.3131977,98.9793994 56.7688,98.9793994 L57.5326,98.9793994 C58.1758033,98.9793994 58.5509995,98.7918013 58.6582001,98.4165994 C58.7386005,98.2021983 58.7788001,97.8404019 58.7788001,97.3311994 L58.7788001,95.3613994 C58.7788001,94.4233946 59.0266976,93.7802011 59.5225001,93.4317993 C60.0183026,93.0833976 60.9227935,92.9091993 62.2360001,92.9091993 C63.1740048,92.9091993 63.8104985,93.043198 64.1455002,93.3111993 C64.4805019,93.5792007 64.6480002,94.1687948 64.6480002,95.0799994 L64.6480002,97.2507994 C64.6480002,98.0280033 64.7216994,98.5103985 64.8691002,98.6979994 C65.0165009,98.8856004 65.3983971,98.9793994 66.0148002,98.9793994 L68.9092003,98.9793994 C70.4904082,98.9793994 71.2810003,99.7163921 71.2810003,101.190399 C71.2810003,102.610807 70.5574075,103.321 69.1102003,103.321 L65.8138002,103.321 C65.2509974,103.321 64.9160007,103.414799 64.8088002,103.6024 C64.7015996,103.79 64.6480002,104.084798 64.6480002,104.4868 L64.6480002,104.4868 Z M91.7428007,119.8834 C89.5451897,119.8834 88.0712044,118.999009 87.3208006,117.2302 C85.4447912,118.999009 83.2204134,119.8834 80.6476005,119.8834 C78.5303899,119.8834 76.8420067,119.327305 75.5824004,118.2151 C74.3227941,117.102894 73.6930004,115.622209 73.6930004,113.773 C73.6930004,110.958986 74.9123882,109.136604 77.3512004,108.3058 C78.3964057,107.957398 79.6023936,107.662601 80.9692005,107.4214 C82.87201,107.099798 84.1650971,106.731302 84.8485006,106.3159 C85.531904,105.900497 85.8736006,105.264004 85.8736006,104.4064 C85.8736006,103.789996 85.6123032,103.274102 85.0897006,102.858699 C84.5670979,102.443297 83.9172044,102.235599 83.1400005,102.235599 C82.2555961,102.235599 81.8134005,102.516997 81.8134005,103.0798 C81.8134005,103.2674 81.8268004,103.454999 81.8536005,103.6426 L81.8536005,103.8034 C81.8536005,104.553803 81.5387037,105.183597 80.9089005,105.6928 C80.2790973,106.202002 79.4952052,106.4566 78.5572004,106.4566 C77.4851951,106.4566 76.6008039,106.135003 75.9040004,105.4918 C75.2071969,104.848596 74.8588004,104.044604 74.8588004,103.0798 C74.8588004,101.632592 75.6225928,100.493604 77.1502004,99.6627994 C78.6778081,98.8319953 80.7815871,98.4165994 83.4616005,98.4165994 C86.3560151,98.4165994 88.5133935,98.858795 89.9338007,99.7431994 C91.4614083,100.708004 92.2252007,102.503586 92.2252007,105.13 L92.2252007,113.4514 C92.2252007,114.309004 92.4395986,114.7378 92.8684007,114.7378 C93.0828018,114.7378 93.2837998,114.7244 93.4714007,114.6976 C93.5518011,114.6708 93.6456002,114.6574 93.7528007,114.6574 C94.3692038,114.6574 94.8917986,114.871798 95.3206008,115.3006 C95.7494029,115.729402 95.9638008,116.251997 95.9638008,116.8684 C95.9638008,117.752804 95.5685047,118.476397 94.7779008,119.0392 C93.9872968,119.602003 92.9756069,119.8834 91.7428007,119.8834 L91.7428007,119.8834 Z M85.9138006,111.2806 L85.9138006,110.3962 C85.7261996,110.5034 84.5470114,110.838397 82.3762005,111.4012 C80.9021931,111.776402 80.1652005,112.352596 80.1652005,113.1298 C80.1652005,114.362606 80.8887933,114.979 82.3360005,114.979 C84.7212125,114.979 85.9138006,113.746212 85.9138006,111.2806 L85.9138006,111.2806 Z M105.290201,92.1453993 C106.040605,92.1453993 106.415801,92.6411943 106.415801,93.6327993 L106.415801,112.6474 C106.415801,113.987406 106.683798,114.6574 107.219801,114.6574 C107.434202,114.6574 107.6218,114.6306 107.782601,114.577 C107.943402,114.523399 108.1578,114.4966 108.425801,114.4966 C109.605007,114.4966 110.194601,115.193393 110.194601,116.587 C110.194601,118.436209 109.390609,119.3608 107.782601,119.3608 C107.755801,119.3608 106.737411,119.280401 104.727401,119.1196 C104.110998,119.066 103.454404,119.0392 102.757601,119.0392 C102.167998,119.0392 101.538204,119.079399 100.868201,119.1598 C99.7425952,119.2938 99.0324023,119.3608 98.7376008,119.3608 C98.0139972,119.3608 97.4244031,119.112902 96.9688008,118.6171 C96.5131985,118.121297 96.2854008,117.471404 96.2854008,116.6674 C96.2854008,115.166592 96.9419942,114.4162 98.2552008,114.4162 C98.4160016,114.4162 98.6370994,114.463099 98.9185008,114.5569 C99.1999022,114.6507 99.421,114.6976 99.5818008,114.6976 C100.037403,114.6976 100.265201,113.947207 100.265201,112.4464 L100.265201,99.0597994 C100.265201,97.5589919 100.037403,96.8085994 99.5818008,96.8085994 C99.3941999,96.8085994 99.1530023,96.8621988 98.8582008,96.9693994 C98.6974,97.0229997 98.4830022,97.0497994 98.2150008,97.0497994 C96.9285944,97.0497994 96.2854008,96.3128067 96.2854008,94.8387993 C96.2854008,94.0079952 96.5131985,93.3514017 96.9688008,92.8689993 C97.4244031,92.3865969 98.0407969,92.1453993 98.8180008,92.1453993 C99.0324019,92.1453993 99.4879974,92.1855989 100.184801,92.2659993 C101.096005,92.3731998 101.779399,92.4267993 102.235001,92.4267993 C102.851404,92.4267993 103.387399,92.3731998 103.843001,92.2659993 C104.459404,92.1855989 104.941799,92.1453993 105.290201,92.1453993 L105.290201,92.1453993 Z M121.048601,93.6729993 L121.048601,107.341 L122.938001,105.6928 C123.098802,105.558799 123.406999,105.290802 123.862601,104.8888 C124.586205,104.272396 124.948001,103.790001 124.948001,103.4416 C124.948001,103.227198 124.827403,103.012801 124.586201,102.798399 L123.943001,102.195399 C123.5946,101.873798 123.420401,101.418202 123.420401,100.828599 C123.420401,99.5957933 124.117194,98.9793994 125.510801,98.9793994 C125.993204,98.9793994 126.730196,99.0329989 127.721801,99.1401994 C128.713406,99.2474 129.463799,99.3009994 129.973001,99.3009994 C130.750205,99.3009994 131.714996,99.2474 132.867401,99.1401994 C134.019807,99.0329989 134.622801,98.9793994 134.676402,98.9793994 C136.257609,98.9793994 137.048202,99.7833914 137.048202,101.391399 C137.048202,102.945807 136.431808,103.723 135.199002,103.723 C134.9578,103.723 134.663003,103.6828 134.314602,103.6024 C133.9662,103.521999 133.698202,103.4818 133.510601,103.4818 C133.1354,103.4818 132.545805,103.776597 131.741801,104.3662 L130.053401,105.6124 C129.356598,106.121602 129.008201,106.523598 129.008201,106.8184 C129.008201,106.9524 129.061801,107.099799 129.169001,107.2606 L129.530801,107.7832 L132.666401,112.7278 C133.524006,114.094607 134.207399,114.778 134.716602,114.778 C134.877402,114.778 135.0918,114.7378 135.359802,114.6574 C135.922604,114.576999 136.204002,114.5368 136.204002,114.5368 C137.410008,114.5368 138.013002,115.300592 138.013002,116.8282 C138.013002,118.516608 137.222409,119.3608 135.641202,119.3608 C135.212399,119.3608 134.569206,119.3072 133.711601,119.2 C132.853997,119.092799 132.210804,119.0392 131.782001,119.0392 C131.058398,119.0392 130.348205,119.092799 129.651401,119.2 C128.954598,119.3072 128.445403,119.3608 128.123801,119.3608 C127.587799,119.3608 127.118803,119.146402 126.716801,118.7176 C126.314799,118.288798 126.113801,117.779603 126.113801,117.19 C126.113801,116.868398 126.2746,116.399403 126.596201,115.783 C126.783802,115.514998 126.877601,115.260401 126.877601,115.0192 C126.877601,114.697598 126.582804,114.121404 125.993201,113.2906 L124.666601,111.4414 C124.157399,110.744596 123.849202,110.3962 123.742001,110.3962 C123.474,110.3962 123.058604,110.650797 122.495801,111.16 L121.048601,112.4866 L121.048601,113.2906 C121.048601,114.309005 121.262999,114.8182 121.691801,114.8182 C121.852602,114.8182 122.0804,114.778 122.375201,114.6976 C122.670003,114.617199 122.9112,114.577 123.098801,114.577 C124.197607,114.577 124.747001,115.220193 124.747001,116.5066 C124.747001,118.409409 123.983209,119.3608 122.455601,119.3608 C122.080399,119.3608 121.504205,119.3072 120.727001,119.2 C119.949797,119.092799 118.810809,119.0392 117.310001,119.0392 C116.479197,119.0392 115.782404,119.079399 115.219601,119.1598 C114.308397,119.2938 113.692003,119.3608 113.370401,119.3608 C112.646797,119.3608 112.057203,119.112902 111.601601,118.6171 C111.145999,118.121297 110.918201,117.484804 110.918201,116.7076 C110.918201,115.179992 111.574795,114.4162 112.888001,114.4162 C112.861201,114.4162 113.196198,114.496599 113.893001,114.6574 C114.000202,114.6842 114.094001,114.6976 114.174401,114.6976 C114.656804,114.6976 114.898001,113.947207 114.898001,112.4464 L114.898001,99.0597994 C114.898001,97.5589919 114.670203,96.8085994 114.214601,96.8085994 C114.027,96.8085994 113.785803,96.8621988 113.491001,96.9693994 C113.3302,97.0229997 113.115802,97.0497994 112.847801,97.0497994 C111.561395,97.0497994 110.918201,96.3128067 110.918201,94.8387993 C110.918201,93.0431903 111.775793,92.1453993 113.491001,92.1453993 C113.919803,92.1453993 114.308399,92.172199 114.656801,92.2257993 C115.514405,92.3598 116.184399,92.4267993 116.666801,92.4267993 C117.042003,92.4267993 117.631597,92.3731998 118.435601,92.2659993 C119.052004,92.1855989 119.4942,92.1453993 119.762201,92.1453993 C120.619806,92.1453993 121.048601,92.6545942 121.048601,93.6729993 L121.048601,93.6729993 Z M149.309202,119.8834 C148.263997,119.8834 147.372905,119.508204 146.635902,118.7578 C145.898898,118.007396 145.530402,117.109605 145.530402,116.0644 C145.530402,115.019195 145.898898,114.121403 146.635902,113.371 C147.372905,112.620596 148.263997,112.2454 149.309202,112.2454 C150.354407,112.2454 151.252198,112.620596 152.002602,113.371 C152.753006,114.121403 153.128202,115.019195 153.128202,116.0644 C153.128202,117.109605 152.753006,118.007396 152.002602,118.7578 C151.252198,119.508204 150.354407,119.8834 149.309202,119.8834 L149.309202,119.8834 Z M150.314202,96.9693994 C148.840194,96.9693994 147.701206,97.3311958 146.897202,98.0547994 C147.728006,98.7248028 148.143402,99.4751953 148.143402,100.305999 C148.143402,101.351205 147.741406,102.242296 146.937402,102.9793 C146.133398,103.716303 145.168607,104.0848 144.043002,104.0848 C142.810196,104.0848 141.805206,103.676104 141.028002,102.858699 C140.250798,102.041295 139.862202,100.976006 139.862202,99.6627994 C139.862202,97.3579879 140.920791,95.4485069 143.038002,93.9342993 C145.155212,92.4200917 147.835186,91.6629993 151.078002,91.6629993 C154.240418,91.6629993 156.786392,92.4401915 158.716002,93.9945993 C160.645612,95.5490071 161.610402,97.5991867 161.610402,100.145199 C161.610402,101.270805 161.375904,102.362894 160.906902,103.4215 C160.4379,104.480105 159.814806,105.290797 159.037602,105.8536 C158.019197,106.630803 156.424613,107.260597 154.253802,107.743 C153.610599,107.877 153.195203,108.037799 153.007602,108.2254 C152.820001,108.413001 152.712802,108.734597 152.686002,109.1902 C152.659202,109.940603 152.511803,110.422999 152.243802,110.6374 C151.975801,110.851801 151.386206,110.985799 150.475002,111.0394 L149.349402,111.1198 L148.947402,111.1198 C147.902197,111.1198 147.178604,110.912102 146.776602,110.4967 C146.3746,110.081298 146.173602,109.337605 146.173602,108.2656 C146.173602,106.898793 146.488499,105.887103 147.118302,105.2305 C147.748105,104.573896 148.907193,104.058001 150.595602,103.6828 C153.222015,103.093197 154.535202,101.940808 154.535202,100.225599 C154.535202,99.2607946 154.146606,98.4769024 153.369402,97.8738994 C152.592198,97.2708964 151.573808,96.9693994 150.314202,96.9693994 Z M55,134 L121,134 L121,135 L55,135 L55,134 Z" id="Combined-Shape" fill="#42FFBE"></path>
                        </g>
                    </g>
                </g>
            </g>
        </g>
    </g>
</svg>