<?xml version="1.0" encoding="UTF-8" standalone="no"?>
<svg width="57px" height="57px" viewBox="0 0 57 57" version="1.1" xmlns="http://www.w3.org/2000/svg" xmlns:xlink="http://www.w3.org/1999/xlink">
    <!-- Generator: Sketch 3.6.1 (26313) - http://www.bohemiancoding.com/sketch -->
    <title>Untitled 2</title>
    <desc>Created with Sketch.</desc>
    <defs>
        <path id="path-1" d="M0,0 L57,0 L57,57 L0,57 L0,0 Z"></path>
    </defs>
    <g id="Page-1" stroke="none" stroke-width="1" fill="none" fill-rule="evenodd">
        <g id="ic_brand">
            <g id="Group">
                <g id="Clipped">
                    <mask id="mask-2" fill="white">
                        <use xlink:href="#path-1"></use>
                    </mask>
                    <g id="a"></g>
                    <g id="a-link" mask="url(#mask-2)" stroke="#FFFFFF" stroke-width="2">
                        <path d="M0,0 L57,0 L57,57 L0,57 L0,0 Z" id="a"></path>
                    </g>
                </g>
                <g id="Group-2" transform="translate(12.000000, 18.000000)" fill="#FFFFFF">
                    <path d="M11.9442162,11.856 L11.9442162,14.3314286 C10.8953514,14.8742857 9.97491892,15.1131429 8.84043243,15.1131429 C7.49189189,15.1131429 6.44302703,14.7005714 5.75805405,13.9405714 C4.90183784,12.9851429 4.45232432,11.4217143 4.45232432,9.40228571 C4.45232432,5.75428571 5.9507027,3.73485714 8.69059459,3.73485714 C9.58962162,3.73485714 10.296,3.952 10.8525405,4.408 C11.3234595,4.77714286 11.5803243,5.18971429 11.8157838,5.97142857 L16.1824865,4.95085714 C15.84,3.90857143 15.4975135,3.25714286 14.9195676,2.584 C13.5068108,0.846857143 11.4732973,0 8.79762162,0 C3.40345946,0 0,3.62628571 0,9.33714286 C0,12.312 0.899027027,14.896 2.52583784,16.5462857 C4.04562162,18.1097143 6.16475676,18.8697143 8.88324324,18.8697143 C10.4672432,18.8697143 12.0298378,18.6091429 13.4211892,18.1314286 C14.3844324,17.8057143 14.9623784,17.5234286 16.1396757,16.7634286 C16.0112432,15.7645714 15.9898378,15.0697143 15.9898378,13.528 L15.9898378,11.096 C15.9898378,9.68457143 16.0326486,8.968 16.1396757,8.14285714 C15.1978378,8.22971429 14.4058378,8.25142857 13.3141622,8.25142857 L11.6017297,8.25142857 C10.1033514,8.25142857 9.58962162,8.22971429 8.79762162,8.12114286 L8.79762162,11.9645714 C9.46118919,11.8777143 9.82508108,11.856 10.9167568,11.856 L11.9442162,11.856 Z" id="Path"></path>
                    <path d="M17.8378378,13.0502857 C17.9876757,14.0491429 18.0947027,14.5485714 18.3087568,15.0697143 C18.7582703,16.3074286 19.5502703,17.2411429 20.6205405,17.8491429 C21.7764324,18.5222857 23.5744865,18.9131429 25.3939459,18.9131429 C27.8983784,18.9131429 29.7820541,18.2834286 31.0235676,17.0674286 C32.0082162,16.0902857 32.5219459,14.7005714 32.5219459,13.072 C32.5219459,11.0742857 31.7513514,9.61942857 30.2101622,8.64228571 C29.3967568,8.12114286 28.3692973,7.752 26.7424865,7.40457143 C24.2166486,6.88342857 24.2166486,6.88342857 23.7885405,6.688 C23.1035676,6.36228571 22.7824865,5.90628571 22.7824865,5.29828571 C22.7824865,4.29942857 23.7457297,3.58285714 25.0514595,3.58285714 C26.6782703,3.58285714 27.4488649,4.16914286 27.7057297,5.58057143 L32.2436757,5.08114286 C31.9654054,3.84342857 31.7085405,3.192 31.1734054,2.47542857 C30.0175135,0.846857143 27.9411892,0 25.2227027,0 C21.0058378,0 18.3515676,2.10628571 18.3515676,5.45028571 C18.3515676,7.20914286 19.0793514,8.664 20.4278919,9.61942857 C21.2198919,10.184 21.9048649,10.4445714 23.8741622,10.8788571 C26.1003243,11.4 26.6354595,11.552 27.084973,11.7691429 C27.6415135,12.0297143 27.984,12.616 27.984,13.2891429 C27.984,14.5051429 26.9993514,15.2434286 25.3511351,15.2434286 C24.2594595,15.2434286 23.3604324,14.8742857 22.8467027,14.2228571 C22.5256216,13.7885714 22.3757838,13.3977143 22.2901622,12.616 L17.8378378,13.0502857 Z" id="Path"></path>
                </g>
            </g>
        </g>
    </g>
</svg>