<?xml version="1.0" encoding="UTF-8" standalone="no"?>
<svg width="38px" height="51px" viewBox="0 0 38 51" version="1.1" xmlns="http://www.w3.org/2000/svg" xmlns:xlink="http://www.w3.org/1999/xlink">
    <!-- Generator: Sketch 3.6.1 (26313) - http://www.bohemiancoding.com/sketch -->
    <title>ic_css</title>
    <desc>Created with Sketch.</desc>
    <defs></defs>
    <g id="Page-1" stroke="none" stroke-width="1" fill="none" fill-rule="evenodd">
        <g id="Desktop-HD" transform="translate(-333.000000, -2321.000000)" fill="#F970B9">
            <g id="Group-3" transform="translate(238.000000, 2321.000000)">
                <g id="symbols" transform="translate(94.942809, 0.000000)">
                    <g id="Capa_1">
                        <g id="_x36_8_35_">
                            <g id="ic_css">
                                <path d="M11.0128863,28.2088093 C10.9416506,28.4053938 10.8481024,28.5757384 10.732242,28.7176923 C10.6167909,28.862012 10.4763664,28.9732092 10.3107637,29.0540799 C10.1445469,29.1349505 9.94127927,29.1743105 9.703622,29.1743105 C9.37057431,29.1743105 9.09504745,29.0979565 8.87356152,28.9469692 C8.65207559,28.7940462 8.47541907,28.592945 8.34338725,28.3421598 C8.21135544,28.0930954 8.11576031,27.8089726 8.05598776,27.4966742 C7.99519172,27.1843757 7.96653365,26.8651947 7.96653365,26.5442929 C7.96653365,26.2208102 7.99519172,25.9039951 8.05598776,25.5906212 C8.11576031,25.2766021 8.21135544,24.9944151 8.34338725,24.7453506 C8.47541907,24.4937052 8.65207559,24.2932491 8.87356152,24.1403261 C9.09504745,23.9867579 9.37159781,23.9129849 9.703622,23.9129849 C9.99204499,23.9129849 10.2297023,23.9704117 10.4124998,24.0850502 C10.595502,24.2024847 10.742477,24.3369107 10.85322,24.4891885 C10.9639629,24.6421115 11.0409303,24.7943892 11.0830986,24.9522591 C11.1256763,25.1073329 11.1557673,25.2318651 11.1729621,25.3209089 L13.9063278,25.3209089 C13.7867827,24.1134409 13.3845462,23.1808472 12.6979808,22.5226976 C12.0124388,21.8651932 11.0399068,21.5309564 9.78079409,21.5217079 C9.0739633,21.5217079 8.43632127,21.6419385 7.87134792,21.8843355 C7.30473697,22.1245816 6.81939211,22.4659161 6.41510864,22.9044674 C6.01062047,23.3423735 5.69988513,23.8693234 5.48269791,24.4881131 C5.26551069,25.1041067 5.15579123,25.7906471 5.15579123,26.541927 C5.15579123,27.2473946 5.25916498,27.9094157 5.46243256,28.5208926 C5.66672365,29.1347355 5.96824747,29.663406 6.36413822,30.1112058 C6.76002896,30.5590057 7.24209862,30.9130299 7.81259888,31.1730636 C8.38330385,31.4307313 9.03875481,31.5619311 9.78079409,31.5619311 C10.4450472,31.5619311 11.0364269,31.4438513 11.5561614,31.2124235 C12.0742584,30.9786298 12.5108845,30.6727838 12.8644023,30.2929498 C13.2177153,29.9126855 13.4860776,29.4846732 13.6688752,29.0106334 C13.8518774,28.5387444 13.9448114,28.0582522 13.9448114,27.575394 L11.1844253,27.575394 C11.1428711,27.8003694 11.0867832,28.0133001 11.0128863,28.2088093 L11.0128863,28.2088093 Z" id="Shape"></path>
                                <path d="M21.9731646,26.3629792 C21.728957,26.1532746 21.4554771,25.9807792 21.1478123,25.8454929 C20.8421944,25.7127876 20.5261369,25.5964284 20.2035289,25.4981361 C19.8796927,25.4086622 19.5626117,25.3260709 19.2518763,25.2486415 C18.9401175,25.1727177 18.660906,25.0914169 18.4150607,25.0062446 C18.1681919,24.9210723 17.9659479,24.8225649 17.8085332,24.7107225 C17.6509138,24.598665 17.5667819,24.459077 17.5596174,24.2891626 C17.5596174,24.1536612 17.593393,24.0443998 17.6625817,23.9592275 C17.7295188,23.8740551 17.8159024,23.8108212 17.9172291,23.7647937 C18.0199888,23.7211321 18.1297083,23.6884397 18.2502768,23.6708031 C18.3702313,23.6527362 18.4758568,23.6452083 18.5694049,23.6452083 C18.7143329,23.6452083 18.8588514,23.66263 19.0037793,23.6974732 C19.1482979,23.734037 19.2803297,23.7957655 19.3998748,23.8854545 C19.5190105,23.965895 19.6103069,24.0689191 19.6741734,24.1951719 C19.7390635,24.3190589 19.7572818,24.4726272 19.7312849,24.6515751 L22.3885019,24.6515751 C22.3719212,24.0689191 22.2556513,23.5791783 22.0444004,23.1821377 C21.8315119,22.7844519 21.5486158,22.4607541 21.2014438,22.2144857 C20.8522248,21.9697229 20.4520353,21.7929258 19.9998519,21.685385 C19.5482826,21.5782744 19.0758339,21.5232135 18.5820963,21.5232135 C18.1147651,21.5232135 17.6588971,21.5849419 17.21613,21.7045273 C16.7733628,21.8241126 16.3813614,22.0146749 16.0409445,22.2751387 C15.7005275,22.5356025 15.4256148,22.8620963 15.2182532,23.2623631 C15.0098681,23.6594037 14.9054708,24.1355943 14.9054708,24.6905048 C14.9054708,25.1737931 14.999019,25.5686829 15.1867293,25.8792607 C15.3738256,26.1872575 15.6143486,26.4438498 15.9080938,26.6449511 C16.201839,26.8460524 16.5338632,27.0075787 16.9055993,27.1275942 C17.2761072,27.2478248 17.6390412,27.3637537 17.9964482,27.4706493 C18.3884497,27.5876537 18.7116717,27.6870214 18.9673427,27.7732691 C19.2232183,27.8593017 19.4232106,27.9382366 19.5677292,28.015666 C19.7126571,28.0887937 19.8135745,28.1718152 19.8743705,28.2559121 C19.9341431,28.3410844 19.9638246,28.4471197 19.9638246,28.5727273 C19.9638246,28.7516752 19.9253409,28.8959949 19.8489877,29.0082675 C19.7720203,29.1218306 19.6741734,29.2093688 19.5552425,29.275829 C19.4367209,29.3446551 19.3087831,29.3883166 19.1726572,29.4113304 C19.0365314,29.434129 18.9133017,29.4429474 18.80174,29.4429474 C18.5376763,29.4429474 18.2736127,29.397135 18.0107773,29.3108873 C17.7456901,29.2211983 17.5626879,29.033432 17.4603377,28.7439322 C17.3921724,28.556166 17.3579874,28.3475369 17.3579874,28.1148186 L14.5474497,28.1148186 C14.5474497,28.6237016 14.623803,29.0626831 14.7781471,29.4298274 C14.9314678,29.7967566 15.1263427,30.109055 15.3660469,30.3690886 C15.6041136,30.6289072 15.8722713,30.8343101 16.1705199,30.9883085 C16.4683591,31.1388656 16.7666077,31.2580208 17.0644469,31.3477098 C17.3629002,31.4371838 17.6433399,31.4961161 17.9074035,31.5223561 C18.1714672,31.5509619 18.3886544,31.5638668 18.5591699,31.5638668 C19.0688741,31.5638668 19.5763266,31.5070853 20.0788663,31.395673 C20.581406,31.2853362 21.0325659,31.1007962 21.4327554,30.8452793 C21.8329448,30.5916981 22.1561669,30.2544502 22.4034451,29.8326752 C22.6486763,29.4134812 22.7735436,28.8878218 22.7735436,28.2632249 C22.7735436,27.8253188 22.7008749,27.4519372 22.5573798,27.1426499 C22.4085626,26.8325023 22.2143018,26.5726837 21.9731646,26.3629792 L21.9731646,26.3629792 Z" id="Shape"></path>
                                <path d="M27.1009119,21.5253643 C26.6341948,21.5253643 26.1777127,21.5870927 25.7349455,21.7066781 C25.2921784,21.8262634 24.9001769,22.0168257 24.5593506,22.2772895 C24.2195478,22.5377533 23.944021,22.8642471 23.7370688,23.264514 C23.5280696,23.6615545 23.4242864,24.1381753 23.4242864,24.6924406 C23.4242864,25.1757289 23.5178345,25.5706186 23.7049308,25.8822718 C23.892027,26.1894083 24.1331642,26.4460007 24.4260906,26.6468868 C24.7204499,26.8479881 25.0520647,27.0097295 25.4240055,27.129745 C25.794104,27.2499756 26.1578567,27.3656895 26.5154685,27.4728001 C26.9062417,27.5895894 27.230692,27.6889571 27.4863629,27.7752048 C27.7420338,27.8614525 27.9416168,27.9401724 28.0861354,28.0176017 C28.2306539,28.0909446 28.33239,28.1739661 28.3927767,28.2589233 C28.4529586,28.3432353 28.4822308,28.4490554 28.4822308,28.574663 C28.4822308,28.753826 28.4437471,28.8979306 28.3678032,29.0104183 C28.2908358,29.1239814 28.192989,29.2115196 28.0734439,29.2779798 C27.955127,29.3465908 27.8271892,29.3902524 27.6910634,29.4134812 C27.5549376,29.4362798 27.4321173,29.4448831 27.3201461,29.4448831 C27.0560825,29.4448831 26.7920189,29.3990707 26.5291834,29.312823 C26.2640963,29.2233491 26.0810941,29.0353678 25.9791532,28.745868 C25.9105786,28.5581018 25.8772124,28.3494726 25.8772124,28.1167544 L23.0656512,28.1167544 C23.0656512,28.6256374 23.1413903,29.0648339 23.2963486,29.4317631 C23.4490552,29.7986923 23.6445441,30.1109907 23.8836343,30.3710244 C24.1227245,30.631058 24.3910868,30.8362458 24.6883119,30.9902442 C24.9865605,31.1410164 25.2848092,31.2601716 25.5820343,31.3496456 C25.8815111,31.4391195 26.1621555,31.4991272 26.4262191,31.5242918 C26.6902827,31.5526826 26.9064464,31.5655875 27.0769619,31.5655875 C27.5872803,31.5655875 28.0957563,31.5088059 28.5966584,31.3976087 C29.0998122,31.2883473 29.5509721,31.1027319 29.9511615,30.8480753 C30.3511463,30.5936338 30.6755966,30.2561708 30.9218512,29.8346109 C31.1681059,29.4152018 31.2927685,28.890833 31.2927685,28.2651606 C31.2927685,27.8272545 31.2200999,27.4536578 31.0745578,27.1445856 C30.930244,26.8363737 30.736802,26.5754798 30.4946413,26.3668506 C30.2504336,26.1562858 29.9771585,25.9846507 29.6705171,25.8491493 C29.3638758,25.7155836 29.0488418,25.5992245 28.7256197,25.5009322 C28.4011694,25.4112432 28.0840884,25.3288669 27.7735577,25.2512225 C27.4617989,25.1752987 27.1829968,25.0939979 26.9367421,25.0088256 C26.6904874,24.9236532 26.4878339,24.825361 26.330624,24.7135185 C26.1727999,24.601461 26.0884633,24.461658 26.0810941,24.2919587 C26.0810941,24.1571025 26.1144602,24.0474109 26.1840584,23.9620235 C26.2516096,23.8772814 26.3369697,23.8136172 26.4387058,23.7678048 C26.5426937,23.7241433 26.6507755,23.691666 26.7713441,23.6738142 C26.8919127,23.6559624 26.9979476,23.6480044 27.0914957,23.6480044 C27.2360142,23.6480044 27.3803281,23.6656411 27.5258701,23.7004843 C27.6693652,23.7376934 27.8024205,23.7987766 27.9209421,23.8882505 C28.0404872,23.968691 28.1319883,24.0719302 28.1954454,24.1977529 C28.2607449,24.321855 28.2785538,24.4752082 28.2535804,24.6543711 L30.910388,24.6543711 C30.8938073,24.0717151 30.7781515,23.5819744 30.5662865,23.1847187 C30.3531933,22.7876781 30.0715254,22.4633351 29.7233299,22.2170667 C29.3741108,21.9725189 28.9739214,21.7955068 28.521738,21.6883962 C28.0662794,21.5802101 27.5934213,21.5253643 27.1009119,21.5253643 L27.1009119,21.5253643 Z" id="Shape"></path>
                                <path d="M30.2616922,0 L0.189962054,0 L0.189962054,50.3910327 L37.1242761,50.3910327 L37.1242761,6.99101161 L30.2616922,0 L30.2616922,0 Z M33.9311531,47.0346847 L3.38328969,47.0346847 L3.38328969,3.35527262 L28.6163096,3.35527262 L28.6163096,8.67854167 L33.9299249,8.67854167 L33.9299249,47.0346847 L33.9311531,47.0346847 L33.9311531,47.0346847 Z" id="Shape"></path>
                            </g>
                        </g>
                    </g>
                </g>
            </g>
        </g>
    </g>
</svg>