<?xml version="1.0" encoding="UTF-8" standalone="no"?>
<svg width="20px" height="19px" viewBox="0 0 20 19" version="1.1" xmlns="http://www.w3.org/2000/svg" xmlns:xlink="http://www.w3.org/1999/xlink">
    <!-- Generator: Sketch 3.6.1 (26313) - http://www.bohemiancoding.com/sketch -->
    <title>ic_facebook</title>
    <desc>Created with Sketch.</desc>
    <defs></defs>
    <g id="Page-1" stroke="none" stroke-width="1" fill="none" fill-rule="evenodd">
        <g id="Desktop-HD" transform="translate(-1324.000000, -2752.000000)" fill="#FFFFFF">
            <g id="Footer" transform="translate(-1.000000, 2739.000000)">
                <g id="social" transform="translate(1196.000000, 13.000000)">
                    <path d="M147.673457,19.0001424 C148.253991,19.0001424 148.724756,18.5305759 148.724756,17.9515199 L148.724756,1.04869367 C148.724756,0.469424076 148.253991,0 147.673457,0 L130.727564,0 C130.146816,0 129.676265,0.469424076 129.676265,1.04869367 L129.676265,17.9515199 C129.676265,18.5305759 130.146816,19.0001424 130.727564,19.0001424 L147.673457,19.0001424 Z M142.819376,19.0001424 L142.819376,11.6423436 L145.29546,11.6423436 L145.666162,8.77482737 L142.819376,8.77482737 L142.819376,6.94404499 C142.819376,6.11383213 143.050477,5.54801737 144.24409,5.54801737 L145.766439,5.54737666 L145.766439,2.98270093 C145.503079,2.94781804 144.599447,2.86972307 143.548148,2.86972307 C141.353268,2.86972307 139.850689,4.20602264 139.850689,6.66014096 L139.850689,8.77482737 L137.368325,8.77482737 L137.368325,11.6423436 L139.850689,11.6423436 L139.850689,19.0001424 L142.819376,19.0001424 Z" id="ic_facebook"></path>
                </g>
            </g>
        </g>
    </g>
</svg>