<?xml version="1.0" encoding="UTF-8" standalone="no"?>
<svg width="20px" height="19px" viewBox="0 0 20 19" version="1.1" xmlns="http://www.w3.org/2000/svg" xmlns:xlink="http://www.w3.org/1999/xlink">
    <!-- Generator: Sketch 3.6.1 (26313) - http://www.bohemiancoding.com/sketch -->
    <title>ic_github</title>
    <desc>Created with Sketch.</desc>
    <defs></defs>
    <g id="Page-1" stroke="none" stroke-width="1" fill="none" fill-rule="evenodd">
        <g id="Desktop-HD" transform="translate(-1195.000000, -2752.000000)" fill="#FFFFFF">
            <g id="Footer" transform="translate(-1.000000, 2739.000000)">
                <g id="social" transform="translate(1196.000000, 13.000000)">
                    <path d="M12.7877209,18.426001 C12.6949551,18.4593547 12.6016499,18.499702 12.5061875,18.5163788 C12.1405176,18.5814723 11.9064458,18.3931853 11.9042885,18.0203769 C11.8994344,17.3280184 11.8994344,16.6367359 11.9107605,15.9443774 C11.9226259,15.1481921 11.9042885,14.3622281 11.2964568,13.7053752 C11.6578119,13.6408196 11.9792562,13.5956307 12.2936891,13.5235437 C14.3766048,13.0463705 15.4585128,11.7358925 15.5965829,9.56090783 C15.6672359,8.45377986 15.4692996,7.43810561 14.7314879,6.5660675 C14.6780936,6.50473971 14.6753969,6.36540728 14.7007457,6.27610541 C14.897064,5.55523492 14.8398944,4.85104128 14.6112159,4.14630968 C14.5545857,3.97039576 14.4607412,3.91606149 14.2865357,3.92735871 C13.6749286,3.96125038 13.1145585,4.17535968 12.6205267,4.50459307 C12.144293,4.82360516 11.7009588,4.8930024 11.1351953,4.76389126 C9.88932909,4.48361251 8.63537284,4.5653829 7.39220331,4.85265517 C7.25143661,4.88600888 7.06212967,4.84135794 6.93322836,4.76604312 C6.34966678,4.42497454 5.76610521,4.0935893 5.09301386,3.96125038 C4.5725546,3.86011333 4.52725037,3.88593556 4.38918035,4.38785509 C4.21551415,5.02049964 4.1982554,5.65368216 4.37569695,6.29009245 C4.40104574,6.3826221 4.37461828,6.5310999 4.31259464,6.59942121 C2.93351243,8.1342298 3.43293759,11.0343886 4.36221355,12.1452823 C5.08492382,13.0081751 6.04494193,13.3965844 7.11066991,13.5983206 C7.29674084,13.6327502 7.48173309,13.6591104 7.66780402,13.6913882 C7.50816056,14.1056197 7.36469717,14.4967189 7.20235703,14.8813624 C7.17053621,14.9556013 7.06968037,15.0180051 6.98716196,15.0492069 C5.94192875,15.4537551 5.04339494,15.1562616 4.4452713,14.2099846 C4.12544504,13.7053752 3.71501033,13.3282631 3.10340328,13.2190566 C3.08398718,13.2152909 3.06403175,13.2050696 3.04623366,13.2077594 C2.88173617,13.2507964 2.7188567,13.2959853 2.55489855,13.3400983 C2.64712501,13.4681335 2.71238466,13.6402817 2.83589261,13.7172104 C3.35419453,14.0442919 3.69127954,14.5107059 3.91402532,15.0610421 C4.26405439,15.9239348 4.94361778,16.3085784 5.82651084,16.3838933 C6.25744032,16.4188609 6.69268449,16.3892729 7.16460351,16.3892729 C7.16460351,16.9250841 7.18401961,17.5367481 7.15651347,18.1457223 C7.14249073,18.4738797 6.81187775,18.6051427 6.41600511,18.4706519 C5.36591788,18.1123686 4.39241637,17.5986138 3.55159151,16.8766674 C0.515669053,14.2680846 -0.654690111,10.970371 0.354407583,7.11048611 C1.36026926,3.26297434 3.98198166,0.902930415 7.90187585,0.162155288 C13.3259782,-0.861050443 18.4642325,3.07899097 19.0024898,8.57105581 C19.4274866,12.9005825 16.8726519,16.9519822 12.7877209,18.426001 L12.7877209,18.426001 Z M7.67427605,13.6709456 C7.67104003,13.6784771 7.66888269,13.6838567 7.66564667,13.6913882 C7.67535472,13.6930021 7.68506277,13.6946159 7.69531015,13.6962298 C7.70286086,13.6967678 7.70933289,13.7102169 7.67427605,13.6709456 L7.67427605,13.6709456 Z M5.22029716,15.382206 C5.30497291,15.4343885 5.38587332,15.5005579 5.47756044,15.52907 C5.51099927,15.5398292 5.57302292,15.4639764 5.68250813,15.383282 C5.53041537,15.3257199 5.44088559,15.2751514 5.34650179,15.2622403 C5.30982694,15.2579366 5.26236537,15.3402449 5.22029716,15.382206 L5.22029716,15.382206 Z M5.99316567,15.514545 C6.0055704,15.5710311 6.11829163,15.6415042 6.18462996,15.6404283 C6.24881095,15.6393524 6.31137393,15.5543542 6.37555491,15.5059376 C6.31730662,15.4526792 6.25905833,15.4010348 6.07999877,15.2401838 C6.04116658,15.3520801 5.97698559,15.4424579 5.99316567,15.514545 L5.99316567,15.514545 Z M6.9413184,15.2869866 C6.86149667,15.3058153 6.79407966,15.3795162 6.7212693,15.4300848 C6.76387685,15.4838811 6.80648439,15.5339116 6.87498007,15.6183718 C6.96936387,15.5322977 7.03354486,15.4725838 7.09826518,15.4144838 C7.04433158,15.367681 6.98122926,15.2773033 6.9413184,15.2869866 L6.9413184,15.2869866 Z M4.59089202,14.9679745 C4.63511758,15.0513588 4.70361325,15.1234458 4.79637905,15.2412597 C4.85840269,15.1401227 4.92581969,15.062656 4.9139543,15.0470551 C4.85516667,14.9701263 4.77534494,14.9071847 4.69660188,14.8496226 C4.69120852,14.8453189 4.58172331,14.9496838 4.59089202,14.9679745 L4.59089202,14.9679745 Z" id="ic_github"></path>
                </g>
            </g>
        </g>
    </g>
</svg>