<?xml version="1.0" encoding="UTF-8" standalone="no"?>
<svg width="43px" height="52px" viewBox="0 0 43 52" version="1.1" xmlns="http://www.w3.org/2000/svg" xmlns:xlink="http://www.w3.org/1999/xlink">
    <!-- Generator: Sketch 3.6.1 (26313) - http://www.bohemiancoding.com/sketch -->
    <title>ic_html</title>
    <desc>Created with Sketch.</desc>
    <defs></defs>
    <g id="Page-1" stroke="none" stroke-width="1" fill="none" fill-rule="evenodd">
        <g id="Desktop-HD" transform="translate(-238.000000, -2321.000000)" fill="#F970B9">
            <g id="Group-3" transform="translate(238.000000, 2321.000000)">
                <g id="internet">
                    <g id="Capa_1">
                        <path d="M0.0431648573,0 L3.93780737,45.9765367 L21.4043337,51.1551683 L38.992361,45.9765367 L42.8875364,0 L0.0431648573,0 L0.0431648573,0 Z M34.4279705,14.9952313 L13.9188013,14.9952313 L14.375283,20.7821651 L33.9717019,20.7821651 L32.4504871,38.1751059 L21.5261545,41.3398003 L21.5261545,41.37194 L21.4043337,41.37194 L10.3886621,38.1751059 L9.71934033,29.2871972 L15.0446048,29.2871972 L15.4401228,33.7633472 L21.4042271,35.4572314 L27.3988132,33.7633472 L28.0684547,26.4734636 L9.44564316,26.4734636 L8.01555413,9.40023978 L34.9154669,9.40023978 L34.4279705,14.9952313 L34.4279705,14.9952313 Z" id="ic_html"></path>
                    </g>
                </g>
            </g>
        </g>
    </g>
</svg>