<?xml version="1.0" encoding="UTF-8" standalone="no"?>
<svg width="20px" height="19px" viewBox="0 0 20 19" version="1.1" xmlns="http://www.w3.org/2000/svg" xmlns:xlink="http://www.w3.org/1999/xlink">
    <!-- Generator: Sketch 3.6.1 (26313) - http://www.bohemiancoding.com/sketch -->
    <title>ic_instagram</title>
    <desc>Created with Sketch.</desc>
    <defs></defs>
    <g id="Page-1" stroke="none" stroke-width="1" fill="none" fill-rule="evenodd">
        <g id="Desktop-HD" transform="translate(-1281.000000, -2752.000000)" fill="#FFFFFF">
            <g id="Footer" transform="translate(-1.000000, 2739.000000)">
                <g id="social" transform="translate(1196.000000, 13.000000)">
                    <path d="M88.8958112,0 L103.054562,0 C104.399187,0 105.499334,0.99297698 105.499334,2.43854858 L105.499334,16.5616465 C105.499334,18.0072181 104.399187,19.0001951 103.054562,19.0001951 L88.8958112,19.0001951 C87.5507954,19.0001951 86.4508435,18.0072181 86.4508435,16.5616465 L86.4508435,2.43854858 C86.4508435,0.99297698 87.5507954,0 88.8958112,0 L88.8958112,0 L88.8958112,0 Z M100.326979,2.11100273 C99.8552357,2.11100273 99.469744,2.49570815 99.469744,2.96644557 L99.469744,5.01385096 C99.469744,5.48439329 99.8552357,5.8692938 100.326979,5.8692938 L102.479943,5.8692938 C102.951686,5.8692938 103.337569,5.48439329 103.337569,5.01385096 L103.337569,2.96644557 C103.337569,2.49570815 102.951686,2.11100273 102.479943,2.11100273 L100.326979,2.11100273 L100.326979,2.11100273 L100.326979,2.11100273 Z M103.346566,8.0351151 L101.670039,8.0351151 C101.828656,8.55169723 101.914516,9.09890753 101.914516,9.66504097 C101.914516,12.8253999 99.2632097,15.3872415 95.9932781,15.3872415 C92.723542,15.3872415 90.0726267,12.8253999 90.0726267,9.66504097 C90.0726267,9.09851736 90.1582915,8.55150215 90.3171039,8.0351151 L88.567625,8.0351151 L88.567625,16.0610613 C88.567625,16.4763948 88.9083284,16.8164261 89.3249176,16.8164261 L102.589664,16.8164261 C103.006254,16.8164261 103.346957,16.4765899 103.346957,16.0610613 L103.346957,8.0351151 L103.346566,8.0351151 L103.346566,8.0351151 Z M95.9930825,5.76141241 C93.8804082,5.76141241 92.1675031,7.41669918 92.1675031,9.4588373 C92.1675031,11.5009754 93.8804082,13.1562622 95.9930825,13.1562622 C98.1059524,13.1562622 99.8190531,11.5009754 99.8190531,9.4588373 C99.8190531,7.41669918 98.1061479,5.76141241 95.9930825,5.76141241 L95.9930825,5.76141241 Z" id="ic_instagram"></path>
                </g>
            </g>
        </g>
    </g>
</svg>