<?xml version="1.0" encoding="UTF-8" standalone="no"?>
<svg width="47px" height="50px" viewBox="0 0 47 50" version="1.1" xmlns="http://www.w3.org/2000/svg" xmlns:xlink="http://www.w3.org/1999/xlink">
    <!-- Generator: Sketch 3.6.1 (26313) - http://www.bohemiancoding.com/sketch -->
    <title>ic_js</title>
    <desc>Created with Sketch.</desc>
    <defs></defs>
    <g id="Page-1" stroke="none" stroke-width="1" fill="none" fill-rule="evenodd">
        <g id="Desktop-HD" transform="translate(-422.000000, -2322.000000)" fill="#F970B9">
            <g id="Group-3" transform="translate(238.000000, 2321.000000)">
                <g id="interface" transform="translate(184.024951, 1.733333)">
                    <g id="Capa_1">
                        <path d="M45.308575,0 L1.49754175,0 C0.670449443,0 0,0.699279067 0,1.56158791 L0,47.2463108 C0,48.1086196 0.670449443,48.8078987 1.49754175,48.8078987 L45.308575,48.8078987 C46.1356673,48.8078987 46.8061168,48.1086196 46.8061168,47.2463108 L46.8061168,1.56158791 C46.8061168,0.699279067 46.1356673,0 45.308575,0 L45.308575,0 Z M21.5084434,27.1297791 C21.5084434,30.036675 19.9459084,31.8424953 17.4303377,31.8424953 C15.8504312,31.8424953 14.4385488,31.016103 13.4548136,29.5155731 C13.0197778,28.8517421 13.1830098,27.9457088 13.8196148,27.4919114 C14.4563696,27.0381139 15.325393,27.2086393 15.7602792,27.8723142 C16.2206235,28.5747164 16.7825012,28.9307585 17.4303377,28.9307585 C17.9423473,28.9307585 18.7161271,28.9307585 18.7161271,27.1299353 L18.7161271,19.7175459 L14.9011395,19.7175459 C14.1300552,19.7175459 13.5049813,19.0657391 13.5049813,18.2616775 C13.5049813,17.4576159 14.1300552,16.8058091 14.9011395,16.8058091 L20.1122853,16.8058091 C20.8833695,16.8058091 21.5084434,17.4576159 21.5084434,18.2616775 L21.5084434,27.1297791 L21.5084434,27.1297791 Z M28.3695807,32.1062475 C26.4978033,32.1062475 24.588138,31.2832907 23.3859115,29.9585956 C22.8557817,29.3745617 22.8801917,28.4529126 23.4401225,27.9002666 C24.0003529,27.3474645 24.8843518,27.3729184 25.4140323,27.9567961 C26.0858296,28.6969888 27.2735299,29.1943545 28.3695807,29.1943545 C29.4916888,29.1943545 30.8021876,28.8526791 30.8021876,27.8902724 C30.8093758,26.9829899 30.3461861,26.6431883 28.1942186,25.9634291 C26.2957849,25.3639355 23.4267944,24.457746 23.4267944,21.0092915 C23.4267944,18.4326714 25.5691777,16.701495 28.7578933,16.701495 C30.1774131,16.701495 31.7252723,17.1502954 32.7975122,17.8729983 C33.4450492,18.3094621 33.6307444,19.2108107 33.2121815,19.8861974 C32.7934688,20.561428 31.9290877,20.7550649 31.2815507,20.3186011 C30.6657615,19.9035311 29.6279651,19.613388 28.7578933,19.613388 C27.5868157,19.613388 26.2192605,19.9791119 26.2192605,21.0092915 C26.2192605,22.1281692 26.8465808,22.4952985 29.0037897,23.1766193 C30.8423217,23.7572177 33.6207109,24.634674 33.5946537,27.9022967 C33.5945039,30.4119246 31.4948006,32.1062475 28.3695807,32.1062475 L28.3695807,32.1062475 Z" id="ic_js"></path>
                    </g>
                </g>
            </g>
        </g>
    </g>
</svg>