<?xml version="1.0" encoding="UTF-8" standalone="no"?>
<svg width="20px" height="19px" viewBox="0 0 20 19" version="1.1" xmlns="http://www.w3.org/2000/svg" xmlns:xlink="http://www.w3.org/1999/xlink">
    <!-- Generator: Sketch 3.6.1 (26313) - http://www.bohemiancoding.com/sketch -->
    <title>ic_linkedin</title>
    <desc>Created with Sketch.</desc>
    <defs></defs>
    <g id="Page-1" stroke="none" stroke-width="1" fill="none" fill-rule="evenodd">
        <g id="Desktop-HD" transform="translate(-1238.000000, -2752.000000)" fill="#FFFFFF">
            <g id="Footer" transform="translate(-1.000000, 2739.000000)">
                <g id="social" transform="translate(1196.000000, 13.000000)">
                    <path d="M58.8072998,11.7136814 C58.8072998,10.0767528 57.5314373,8.77591805 56.1107717,8.77591805 C55.025263,8.77591805 54.0655822,8.77591805 53.4280159,10.1461536 C53.3103093,10.3991245 53.1740541,11.1357374 53.1740541,11.5000581 L53.1740541,18.5745119 L49.7253209,18.5745116 L49.7253208,9.58869706 L49.7253208,5.15651076 L53.3065444,5.15651076 L53.4831976,6.9044775 L53.5605065,6.9044775 C54.077567,6.07389966 55.2526829,5.15651076 57.3727673,5.15651076 C59.9571601,5.15651076 62.2739127,7.19692101 62.2739127,10.9370354 L62.2739127,18.5745119 L58.8072998,18.5745119 L58.8072998,11.7136814 L58.8072998,11.7136814 Z M45.0818077,3.5618685 C43.9535054,3.5618685 43.2254217,2.76553087 43.2254217,1.78155284 C43.2254217,0.773655818 43.977072,0 45.128114,0 C46.279156,0 46.9845,0.773243421 47.0080666,1.78155284 C47.00848,2.76553087 46.2795695,3.5618685 45.0818077,3.5618685 L45.0818077,3.5618685 L45.0818077,3.5618685 Z M43.6408688,18.5745119 L43.6408687,5.15651094 L46.6690429,5.15651107 L46.669043,18.5745121 L43.6408688,18.5745119 L43.6408688,18.5745119 Z" id="ic_linkedin"></path>
                </g>
            </g>
        </g>
    </g>
</svg>