<?xml version="1.0" encoding="UTF-8" standalone="no"?>
<svg width="20px" height="17px" viewBox="0 0 20 17" version="1.1" xmlns="http://www.w3.org/2000/svg" xmlns:xlink="http://www.w3.org/1999/xlink">
    <!-- Generator: Sketch 3.6.1 (26313) - http://www.bohemiancoding.com/sketch -->
    <title>ic_mail</title>
    <desc>Created with Sketch.</desc>
    <defs></defs>
    <g id="Page-1" stroke="none" stroke-width="1" fill="none" fill-rule="evenodd">
        <g id="Desktop-HD" transform="translate(-72.000000, -2985.000000)" fill="#FFFFFF">
            <g id="Footer" transform="translate(-1.000000, 2973.000000)">
                <path d="M91,28.9722222 L75,28.9722222 C73.9,28.9722222 73,28.0659722 73,26.9583333 L73,14.875 C73,13.7673611 73.9,12.8611111 75,12.8611111 L91,12.8611111 C92.1,12.8611111 93,13.7673611 93,14.875 L93,26.9583333 C93,28.0659722 92.1,28.9722222 91,28.9722222 L91,28.9722222 Z M91,24.9444444 L83,19.9097222 L75,24.9444444 L75,26.9583333 L83,21.9236111 L91,26.9583333 L91,24.9444444 L91,24.9444444 Z" id="ic_mail" transform="translate(83.000000, 20.916667) scale(1, -1) translate(-83.000000, -20.916667) "></path>
            </g>
        </g>
    </g>
</svg>