<?xml version="1.0" encoding="UTF-8" standalone="no"?>
<svg width="57px" height="45px" viewBox="0 0 57 45" version="1.1" xmlns="http://www.w3.org/2000/svg" xmlns:xlink="http://www.w3.org/1999/xlink">
    <!-- Generator: Sketch 3.6.1 (26313) - http://www.bohemiancoding.com/sketch -->
    <title>ic_sass</title>
    <desc>Created with Sketch.</desc>
    <defs></defs>
    <g id="Page-1" stroke="none" stroke-width="1" fill="none" fill-rule="evenodd">
        <g id="Desktop-HD" transform="translate(-520.000000, -2324.000000)" fill="#F970B9">
            <g id="Group-3" transform="translate(238.000000, 2321.000000)">
                <g id="Sass_Logo_Color" transform="translate(282.711863, 3.466667)">
                    <g id="Layer_1">
                        <path d="M47.8470696,25.1240604 C45.9125247,25.1346613 44.2311924,25.6223013 42.8233299,26.3431604 C42.306776,25.2724726 41.7902221,24.3183943 41.6990656,23.618737 C41.5977805,22.80247 41.4762384,22.3042292 41.5977805,21.3289492 C41.7193226,20.3536692 42.266262,18.9649553 42.2561335,18.8589466 C42.246005,18.7529379 42.1345914,18.2546971 41.0204556,18.2440962 C39.9063197,18.2334953 38.9441115,18.4667144 38.8326979,18.7741397 C38.7212843,19.0815649 38.5085857,19.7812222 38.3667866,20.5020814 C38.1743449,21.5621683 36.1385149,25.3466787 34.9737366,27.3290412 C34.5989818,26.5551778 34.2748695,25.8767221 34.20397,25.3360778 C34.1026849,24.5198108 33.9811428,24.02157 34.1026849,23.04629 C34.224227,22.07101 34.7711664,20.6822961 34.7610379,20.5762874 C34.7509094,20.4702787 34.6394958,19.9720379 33.52536,19.961437 C32.4112241,19.9508362 31.4490159,20.1840553 31.3376023,20.4914805 C31.2261888,20.7989057 31.1046467,21.5197648 30.871691,22.2194222 C30.6387353,22.9190796 27.9344238,29.2371977 27.2254283,30.8697316 C26.860802,31.7072003 26.5468183,32.375055 26.3239911,32.8308924 L26.3239911,32.8308924 C26.3239911,32.8308924 26.3138626,32.862695 26.2834771,32.9156994 C26.0910354,33.3079316 25.9796219,33.5199489 25.9796219,33.5199489 C25.9796219,33.5199489 25.9796219,33.5199489 25.9796219,33.5305498 C25.8276942,33.8167733 25.6656381,34.081795 25.5846101,34.081795 C25.523839,34.081795 25.4124254,33.3185324 25.6048671,32.2796472 C26.0100074,30.0852673 26.9722156,26.6717873 26.9620871,26.5551778 C26.9620871,26.4915726 27.1444002,25.8979239 26.3341196,25.5904987 C25.544096,25.2830734 25.2604978,25.7919152 25.1895983,25.7919152 C25.1186987,25.7919152 25.0680562,25.97213 25.0680562,25.97213 C25.0680562,25.97213 25.9492363,22.1346152 23.3867239,22.1346152 C21.7864197,22.1346152 19.5784051,23.9685656 18.4845263,25.6223013 C17.7957878,26.0145334 16.3271542,26.8520021 14.7572355,27.753076 C14.1596535,28.1029047 13.5418146,28.4527334 12.9644897,28.7813603 C12.9239756,28.7389569 12.8834616,28.6859525 12.8429476,28.643549 C9.74362426,25.1770647 4.01088899,22.7282639 4.25397317,18.0744823 C4.34512974,16.3783432 4.90219765,11.925978 15.2636609,6.51953466 C23.7918642,2.12017387 30.5779643,3.33927385 31.7528712,6.04249554 C33.4342034,9.90121199 28.1167369,17.0673997 19.3049354,18.1062849 C15.9422709,18.498517 14.1799106,17.1416058 13.7342562,16.632764 C13.2683449,16.1027206 13.1974453,16.070918 13.0252607,16.1769267 C12.7416625,16.3359397 12.9239756,16.8129788 13.0252607,17.0886014 C13.2886019,17.8094605 14.3723522,19.0815649 16.2056121,19.7070162 C17.8261733,20.2582614 21.7661627,20.5656866 26.5366898,18.6363283 C31.8744132,16.473751 36.0473584,10.4630581 34.8218089,5.42764512 C33.5962595,0.318026081 25.4934535,-1.36751215 17.8261733,1.48412171 C13.2683449,3.18026081 8.3256332,5.85167989 4.77052705,9.32876504 C0.546939407,13.4631041 -0.121542091,17.0567988 0.151927613,18.5621223 C1.13439285,23.9049604 8.17370559,27.3820456 10.9894307,29.9580568 C10.8476316,30.0428638 10.715961,30.1170699 10.6045474,30.1806751 C9.19668485,30.9121351 3.82857585,33.8485759 2.49161286,36.9546306 C0.972336724,40.4741192 2.73469704,42.9971262 3.8994754,43.336354 C7.5153526,44.38584 11.2325149,42.4988853 13.2278309,39.3822297 C15.2231468,36.2655741 14.9800627,32.216042 14.0583685,30.3608899 C14.04824,30.3396881 14.0381115,30.3184864 14.0178544,30.2972847 C14.3824807,30.0746664 14.7572355,29.8414473 15.1218618,29.618829 C15.8409858,29.1735925 16.5499813,28.7601586 17.1576918,28.4209308 C16.8133225,29.4068116 16.5601098,30.5835081 16.4385677,32.2796472 C16.2866401,34.2726107 17.0665352,36.8592228 18.0895145,37.8769063 C18.5452973,38.3221428 19.0821082,38.3327436 19.4264775,38.3327436 C20.6216414,38.3327436 21.1584523,37.2938584 21.7560342,36.0641576 C22.4852868,34.5588341 23.1436397,32.8096907 23.1436397,32.8096907 C23.1436397,32.8096907 22.3232306,37.5376784 24.5515023,37.5376784 C25.3617829,37.5376784 26.182192,36.435188 26.5468183,35.8733419 L26.5468183,35.8839428 C26.5468183,35.8839428 26.5670753,35.8521402 26.6075893,35.7779341 C26.6886174,35.6401228 26.7392599,35.5553159 26.7392599,35.5553159 L26.7392599,35.5341141 C27.0633722,34.9404654 27.7926247,33.594155 28.876375,31.3573716 C30.2741091,28.4739351 31.6212006,24.8696395 31.6212006,24.8696395 C31.6212006,24.8696395 31.7427426,25.7495117 32.1580115,27.2124317 C32.4010956,28.0711021 32.907521,29.0145795 33.3126613,29.9262542 C32.9885491,30.4032933 32.7859789,30.6683151 32.7859789,30.6683151 C32.7859789,30.6683151 32.7859789,30.6683151 32.7961074,30.678916 C32.5327662,31.0393455 32.249168,31.4315777 31.9351843,31.813209 C30.831177,33.191322 29.514471,34.7708515 29.3321579,35.2266889 C29.1194592,35.7673332 29.1701017,36.1595654 29.575242,36.4775915 C29.8689688,36.7108106 30.3956511,36.7426132 30.932462,36.7108106 C31.9250558,36.6366045 32.6239228,36.3821837 32.9682921,36.2231706 C33.505103,36.0217541 34.1330704,35.7143289 34.7205239,35.2584915 C35.8042742,34.4210228 36.4626272,33.2231246 36.4018561,31.6435951 C36.3714706,30.7743238 36.0980009,29.9050525 35.7637601,29.0887855 C35.8650452,28.9403734 35.9562018,28.7919612 36.0574869,28.643549 C37.7692046,26.0251343 39.0960391,23.1522987 39.0960391,23.1522987 C39.0960391,23.1522987 39.2175812,24.0321709 39.63285,25.4950908 C39.8354202,26.2371517 40.250689,27.0428178 40.6153153,27.8272821 C39.0048826,29.1947942 38.0122888,30.7849246 37.6577911,31.8238098 C37.0196951,33.7531681 37.5159919,34.6224394 38.4579431,34.8238559 C38.8833405,34.9192637 39.4910509,34.7072463 39.9367053,34.5058298 C40.5039017,34.3150141 41.1723832,33.9863872 41.8104791,33.4987472 C42.8942295,32.6612785 43.9374657,31.4951829 43.8766947,29.9156534 C43.8463092,29.1947942 43.663996,28.484536 43.4107833,27.7954795 C44.7781319,27.2018308 46.5404922,26.8732038 48.7890208,27.1488265 C53.6101904,27.7424751 54.5622701,30.8909333 54.379957,32.216042 C54.1976439,33.5411507 53.1847931,34.2620098 52.8505524,34.4846281 C52.5163116,34.7072463 52.404898,34.7814524 52.4352836,34.9404654 C52.4757976,35.1736846 52.6378537,35.1630837 52.9214519,35.1206802 C53.3164637,35.0464741 55.4535788,34.0499924 55.5447354,31.6117925 C55.696663,28.4951369 52.8606809,25.0922578 47.8470696,25.1240604 L47.8470696,25.1240604 Z M10.6551899,38.2479367 C9.05488575,40.0712862 6.82661409,40.7603427 5.86440587,40.1772949 C4.8312981,39.5518436 5.2364384,36.8592228 7.20136886,34.9298646 C8.39653275,33.7531681 9.9360659,32.6612785 10.9590452,31.9934238 C11.1920008,31.8450116 11.5363701,31.6329942 11.9516389,31.3679725 C12.0225385,31.325569 12.0630525,31.3043672 12.0630525,31.3043672 L12.0630525,31.3043672 C12.1440805,31.2513629 12.2251086,31.1983585 12.3061367,31.1453542 C13.0252607,33.9015802 12.3365222,36.3291793 10.6551899,38.2479367 L10.6551899,38.2479367 Z M22.3029736,29.9580568 C21.7459057,31.3785733 20.5811273,35.0146715 19.8721318,34.813255 C19.2644214,34.6436411 18.8896666,31.8874151 19.7505897,29.1629916 C20.1861155,27.7954795 21.1078097,26.1629456 21.6446206,25.5268934 C22.5156723,24.50921 23.4778805,24.1699822 23.7108362,24.5834161 C24.0045629,25.1240604 22.6473429,29.0675838 22.3029736,29.9580568 L22.3029736,29.9580568 Z M31.9149273,34.7708515 C31.6819716,34.898062 31.4591444,34.9828689 31.3578594,34.9192637 C31.2869598,34.8768602 31.4591444,34.7072463 31.4591444,34.7072463 C31.4591444,34.7072463 32.6644368,33.350335 33.1404767,32.7354846 C33.4139464,32.375055 33.7380586,31.9510203 34.0824279,31.4739812 L34.0824279,31.6117925 C34.0824279,33.2337255 32.5834088,34.325615 31.9149273,34.7708515 L31.9149273,34.7708515 Z M39.3289948,33.0005063 C39.1568102,32.8732959 39.1871957,32.4492611 39.7645206,31.1241525 C39.9873478,30.6047099 40.5140302,29.7354386 41.4154674,28.8979699 C41.5167524,29.2371977 41.587652,29.5658247 41.5775235,29.8732499 C41.567395,31.9192177 40.1696609,32.6824803 39.3289948,33.0005063 L39.3289948,33.0005063 Z" id="ic_sass"></path>
                    </g>
                </g>
            </g>
        </g>
    </g>
</svg>