<?xml version="1.0" encoding="UTF-8" standalone="no"?>
<svg width="53px" height="48px" viewBox="0 0 53 48" version="1.1" xmlns="http://www.w3.org/2000/svg" xmlns:xlink="http://www.w3.org/1999/xlink">
    <!-- Generator: Sketch 3.6.1 (26313) - http://www.bohemiancoding.com/sketch -->
    <title>Layer_1</title>
    <desc>Created with Sketch.</desc>
    <defs></defs>
    <g id="Page-1" stroke="none" stroke-width="1" fill="none" fill-rule="evenodd">
        <g id="Desktop-HD" transform="translate(-602.000000, -2454.000000)">
            <g id="1459916898_1-07" transform="translate(590.000000, 2423.000000)">
                <g id="Layer_1" transform="translate(0.000000, 17.000000)">
                    <path d="M48.4103178,22.4851938 L27.7176124,22.4851938 C27.2233798,22.4851938 26.8222636,22.0846744 26.8222636,21.589845 L26.8222636,18.6017674 C26.8222636,16.4624806 28.5628217,14.7219225 30.7021085,14.7219225 L45.4258217,14.7219225 C47.5651085,14.7219225 49.3056667,16.4624806 49.3056667,18.6017674 L49.3056667,21.589845 C49.3056667,22.0846744 48.9045504,22.4851938 48.4103178,22.4851938 L48.4103178,22.4851938 Z M28.6129612,20.6944961 L47.514969,20.6944961 L47.514969,18.6017674 C47.514969,17.4497519 46.5778372,16.5126202 45.4258217,16.5126202 L30.7021085,16.5126202 C29.550093,16.5126202 28.6129612,17.4497519 28.6129612,18.6017674 L28.6129612,20.6944961 L28.6129612,20.6944961 Z" id="Shape" fill="#F970B9"></path>
                    <path id="Shape" d="M15.394031,45.1679612 C15.559969,45.2179612 15.7294884,45.2539612 15.9037829,45.2539612 C15.7294884,45.2539612 15.5605659,45.2159612 15.394031,45.1679612 L15.394031,45.1679612 Z"></path>
                    <path id="Shape" d="M61.4000388,45.1723721 C61.5340388,45.1383721 61.6650388,45.0953721 61.7940388,45.0503721 C61.6640388,45.0943721 61.5350388,45.1393721 61.4000388,45.1723721 L61.4000388,45.1723721 Z"></path>
                    <path id="Shape" d="M60.6855504,45.2539612 C60.8604419,45.2539612 61.0293643,45.2179612 61.1953023,45.1679612 C61.0287674,45.2159612 60.8604419,45.2539612 60.6855504,45.2539612 L60.6855504,45.2539612 Z"></path>
                    <path id="Shape" d="M14.9547132,45.0503721 C15.0847132,45.0953721 15.2147132,45.1383721 15.3487132,45.1723721 C15.2137132,45.1393721 15.0847132,45.0943721 14.9547132,45.0503721 L14.9547132,45.0503721 Z"></path>
                    <path d="M60.6855504,46.1146434 L44.3149922,46.1146434 C43.8207597,46.1146434 43.4196434,45.714124 43.4196434,45.2192946 C43.4196434,44.7244651 43.8207597,44.3239457 44.3149922,44.3239457 L60.6855504,44.3239457 C60.8037364,44.3239457 60.9332636,44.3042481 61.0448837,44.2857442 C61.0801008,44.2791783 61.1278527,44.2696279 61.1744109,44.257093 C61.2352946,44.2421705 61.2812558,44.2254574 61.327814,44.2093411 C61.499124,44.1496512 61.6310388,44.0899612 61.7432558,44.0231085 C62.3896977,43.6393023 62.7752946,42.9707752 62.7752946,42.2347984 L62.7752946,24.5743411 C62.7752946,23.4223256 61.8381628,22.4851938 60.6861473,22.4851938 L15.9043798,22.4851938 C14.7523643,22.4851938 13.8152326,23.4223256 13.8152326,24.5743411 L13.8152326,42.2342016 C13.8152326,42.9701783 14.2008295,43.6393023 14.8460775,44.0225116 C14.9594884,44.0899612 15.0914031,44.1490543 15.2507752,44.2051628 C15.3098682,44.2254574 15.3558295,44.2421705 15.4041783,44.2541085 C15.4632713,44.269031 15.5110233,44.2791783 15.5593721,44.2881318 C15.6572636,44.304845 15.7867907,44.3245426 15.9049767,44.3245426 L34.0005736,44.3245426 C34.4948062,44.3245426 34.8959225,44.725062 34.8959225,45.2198915 C34.8959225,45.7147209 34.4948062,46.1152403 34.0005736,46.1152403 L15.9043798,46.1152403 C15.6501008,46.1152403 15.417907,46.0806202 15.2436124,46.0513721 C15.1409457,46.0322713 15.0514109,46.0137674 14.9636667,45.9904884 C14.8771163,45.969 14.7822093,45.9379612 14.6873023,45.9057287 C14.3858682,45.8006744 14.1477054,45.6914419 13.9304341,45.5625116 C12.7372326,44.8533953 12.0245349,43.6100543 12.0245349,42.2353953 L12.0245349,24.5743411 C12.0245349,22.4350543 13.765093,20.6944961 15.9043798,20.6944961 L60.6855504,20.6944961 C62.8248372,20.6944961 64.5653953,22.4350543 64.5653953,24.5743411 L64.5653953,42.2342016 C64.5653953,43.6088605 63.8526977,44.8527984 62.6583023,45.5619147 C62.4428217,45.6902481 62.204062,45.7994806 61.9306822,45.8955814 C61.8077209,45.9373643 61.712814,45.9684031 61.6143256,45.992876 C61.5391163,46.0125736 61.4495814,46.0316744 61.3600465,46.0483876 C61.1720233,46.0800233 60.9398295,46.1146434 60.6855504,46.1146434 L60.6855504,46.1146434 Z" id="Shape" fill="#F970B9"></path>
                    <g id="Group" transform="translate(15.519380, 31.038760)" fill="#F970B9">
                        <path d="M12.0430388,11.2712481 L3.60228682,11.2712481 C3.38322481,11.2712481 3.18982946,11.2431938 3.02866667,11.2157364 C2.93555039,11.1984264 2.85914729,11.1823101 2.78393798,11.1626124 C2.70455039,11.1429147 2.6191938,11.1148605 2.53443411,11.0856124 C2.28313953,10.9984651 2.0760155,10.9035581 1.88739535,10.7907442 C0.850581395,10.1753411 0.231596899,9.09435659 0.231596899,7.89936434 L0.231596899,1.01234109 C0.231596899,0.517511628 0.632713178,0.116992248 1.12694574,0.116992248 C1.62117829,0.116992248 2.02229457,0.517511628 2.02229457,1.01234109 L2.02229457,7.89996124 C2.02229457,8.45627132 2.3135814,8.96184496 2.80244186,9.25193798 C2.88839535,9.30267442 2.98867442,9.34803876 3.11044186,9.38982171 C3.15043411,9.40355039 3.18803876,9.41727907 3.22743411,9.42742636 C3.27220155,9.43936434 3.3104031,9.44652713 3.34741085,9.45309302 C3.41903876,9.46562791 3.50917054,9.47995349 3.60288372,9.47995349 L12.0436357,9.47995349 C12.5378682,9.47995349 12.9389845,9.88047287 12.9389845,10.3753023 C12.9389845,10.8701318 12.5372713,11.2712481 12.0430388,11.2712481 L12.0430388,11.2712481 Z" id="Shape"></path>
                    </g>
                    <path d="M25.0208217,58.4782171 L19.1574806,58.4782171 C19.0046744,58.4782171 18.8596279,58.4603101 18.7145814,58.4358372 C18.6393721,58.4221085 18.5784884,58.4095736 18.5193953,58.3934574 C18.456124,58.3773411 18.3874806,58.3552558 18.3206279,58.3325736 C18.1337984,58.2675116 17.9744264,58.194093 17.8269922,58.1063488 C17.0223721,57.6288295 16.5424651,56.790186 16.5424651,55.8626047 L16.5424651,51.0772636 C16.5424651,50.5824341 16.9435814,50.1819147 17.437814,50.1819147 C17.9320465,50.1819147 18.3331628,50.5824341 18.3331628,51.0772636 L18.3331628,55.8626047 C18.3331628,56.1521008 18.485969,56.4153333 18.7414419,56.5669457 C18.7927752,56.5973876 18.8488837,56.6200698 18.9055891,56.6403643 L18.965876,56.660062 C19.0607829,56.6791628 19.107938,56.6881163 19.1580775,56.6881163 L25.0214186,56.6881163 C25.5156512,56.6881163 25.9167674,57.0886357 25.9167674,57.5834651 C25.9167674,58.0782946 25.5150543,58.4782171 25.0208217,58.4782171 L25.0208217,58.4782171 Z" id="Shape" fill="#F970B9"></path>
                    <path d="M58.9175349,61.8799457 L17.6717984,61.8799457 C15.3677674,61.8799457 13.492907,60.0050853 13.492907,57.7010543 L13.492907,44.7925116 C13.492907,44.2976822 13.8940233,43.8971628 14.3882558,43.8971628 C14.8824884,43.8971628 15.2836047,44.2976822 15.2836047,44.7925116 L15.2836047,57.7010543 C15.2836047,59.017814 16.3550388,60.0892481 17.6717984,60.0892481 L58.9175349,60.0892481 C60.2342946,60.0892481 61.3057287,59.017814 61.3057287,57.7010543 L61.3057287,44.7925116 C61.3057287,44.2976822 61.706845,43.8971628 62.2010775,43.8971628 C62.6953101,43.8971628 63.0964264,44.2976822 63.0964264,44.7925116 L63.0964264,57.7010543 C63.0964264,60.0056822 61.2215659,61.8799457 58.9175349,61.8799457 L58.9175349,61.8799457 Z" id="Shape" fill="#F970B9"></path>
                    <path d="M61.6352171,45.9463178 C61.2627519,45.9463178 60.9159535,45.7123333 60.7882171,45.341062 C60.6282481,44.8754806 60.8753643,44.3681163 61.3397519,44.2057597 C61.4967364,44.150845 61.6262636,44.0923488 61.7378837,44.0266899 C61.7396744,44.026093 61.7414651,44.0248992 61.7432558,44.0237054 L61.7432558,44.0237054 L61.7432558,44.0237054 L61.7438527,44.0237054 L61.7438527,44.0237054 C62.1664574,43.771814 62.7179922,43.9096977 62.9710775,44.3352868 C63.2241628,44.7596822 63.0844884,45.3094264 62.660093,45.5625116 L62.660093,45.5625116 C62.660093,45.5625116 62.660093,45.5625116 62.6594961,45.5625116 L62.660093,45.5625116 L62.6594961,45.5625116 C62.6559147,45.5643023 62.6523333,45.5666899 62.648155,45.5690775 L62.648155,45.5690775 L62.648155,45.5690775 C62.6475581,45.5690775 62.6469612,45.5696744 62.6469612,45.5696744 C62.4225271,45.7015891 62.1783953,45.8126124 61.9211318,45.8991628 C61.8256279,45.9307984 61.7295271,45.9463178 61.6352171,45.9463178 L61.6352171,45.9463178 Z M61.7378837,44.026093 L62.1933178,44.7972868 L61.7378837,44.026093 L61.7378837,44.026093 Z" id="Shape" fill="#F970B9"></path>
                    <path d="M15.3952248,46.0633101 C15.3432946,46.0633101 15.2907674,46.0585349 15.2382403,46.0495814 C15.1916822,46.0412248 15.1463178,46.0322713 15.1009535,46.022124 C15.0549922,46.0119767 15.009031,46.0012326 14.9636667,45.9892946 C14.4867442,45.8651395 14.2008295,45.3792636 14.3225969,44.9017442 C14.4437674,44.4248217 14.9224806,44.132938 15.4071628,44.2547054 L15.5581783,44.2875349 C16.0434574,44.3776667 16.3633953,44.8426512 16.2750543,45.3273333 C16.1968605,45.7600853 15.8196202,46.0633101 15.3952248,46.0633101 L15.3952248,46.0633101 Z" id="Shape" fill="#F970B9"></path>
                    <path d="M14.9547132,45.9463178 C14.8604031,45.9463178 14.7643023,45.9313953 14.6687984,45.8991628 C14.4115349,45.8126124 14.1674031,45.7015891 13.942969,45.5696744 C13.942969,45.5696744 13.9423721,45.5690775 13.9417752,45.5690775 C13.9411783,45.5684806 13.931031,45.5631085 13.9298372,45.5625116 L13.9298372,45.5625116 C13.504845,45.3094264 13.3657674,44.7596822 13.6188527,44.3352868 C13.871938,43.9096977 14.422876,43.771814 14.8460775,44.0237054 C14.8496589,44.0254961 14.8502558,44.026093 14.8520465,44.0266899 C14.9636667,44.0923488 15.0931938,44.150845 15.2501783,44.2057597 C15.7145659,44.3681163 15.9610853,44.8754806 15.8017132,45.341062 C15.6745736,45.7123333 15.3271783,45.9463178 14.9547132,45.9463178 L14.9547132,45.9463178 Z" id="Shape" fill="#F970B9"></path>
                    <path d="M61.1947054,46.0633101 C60.7703101,46.0633101 60.3930698,45.7600853 60.314876,45.3273333 C60.2271318,44.8426512 60.5470698,44.3776667 61.0317519,44.2875349 L61.1833643,44.2547054 C61.6614806,44.132938 62.1455659,44.4248217 62.2673333,44.9017442 C62.3891008,45.3792636 62.103186,45.8651395 61.6262636,45.9898915 C61.5808992,46.0018295 61.5355349,46.0125736 61.4889767,46.022124 C61.4436124,46.0322713 61.3982481,46.0412248 61.3516899,46.0495814 C61.2985659,46.0591318 61.2460388,46.0633101 61.1947054,46.0633101 L61.1947054,46.0633101 Z" id="Shape" fill="#F970B9"></path>
                    <path d="M42.2521085,49.1522636 L36.0628605,49.1522636 C34.4321318,49.1522636 33.1046279,47.8253566 33.1046279,46.194031 L33.1046279,42.717093 C33.1046279,41.0857674 34.4321318,39.7588605 36.0628605,39.7588605 L42.2521085,39.7588605 C43.8828372,39.7588605 45.2103411,41.0857674 45.2103411,42.717093 L45.2103411,46.194031 C45.2103411,47.8253566 43.8834341,49.1522636 42.2521085,49.1522636 L42.2521085,49.1522636 Z M36.0628605,41.5495581 C35.4194031,41.5495581 34.8953256,42.0730388 34.8953256,42.717093 L34.8953256,46.194031 C34.8953256,46.8380853 35.4194031,47.3615659 36.0628605,47.3615659 L42.2521085,47.3615659 C42.8955659,47.3615659 43.4196434,46.8380853 43.4196434,46.194031 L43.4196434,42.717093 C43.4196434,42.0730388 42.8955659,41.5495581 42.2521085,41.5495581 L36.0628605,41.5495581 L36.0628605,41.5495581 Z" id="Shape" fill="#F970B9"></path>
                </g>
            </g>
        </g>
    </g>
</svg>